<?xml version="1.0" encoding="utf-8"?>
<!-- Generator: Adobe Illustrator 19.2.0, SVG Export Plug-In . SVG Version: 6.00 Build 0)  -->
<svg version="1.1" id="Calque_1" xmlns="http://www.w3.org/2000/svg" xmlns:xlink="http://www.w3.org/1999/xlink" x="0px" y="0px"
	 viewBox="0 0 419.5 118" style="enable-background:new 0 0 419.5 118;" xml:space="preserve">
<g>
	<path d="M27.6,44.5c3.1,0,6.2,0,9.3,0c0,1.7,0,3.4,0,5.1c0.1,0.1,0.3,0.2,0.4,0.3c2-2.8,4.2-5.1,7.6-6c3.4-0.9,6.8-0.8,10.1,0.5
		c3.4,1.3,5.4,3.8,6.7,6.9c1.5-1.7,2.9-3.5,4.6-5.1c1.3-1.3,3-2.1,4.8-2.4c1.7-0.2,3.4-0.6,5-0.4c4.6,0.3,8.9,2.9,10.7,8.1
		c0.7,2.1,1,4.1,1,6.2c0,9.9,0,19.9,0,29.8c0,0.3-0.1,0.7-0.1,1.1c-3.2,0-6.4,0-9.8,0c0-0.5,0-1,0-1.5c0-9.2,0.1-18.4-0.1-27.6
		c0-1.7-0.4-3.4-1-5c-1-2.7-4.5-3.9-7.4-3c-4.1,1.2-5.8,4.3-6.4,8.2c-0.4,2.7-0.5,5.5-0.5,8.3c-0.1,6.4,0,12.8,0,19.3
		c0,0.5,0,0.9,0,1.4c-3.3,0-6.5,0-9.9,0c0-0.5,0-1,0-1.5c0-9.3,0.1-18.6-0.1-27.9c0-1.9-0.4-3.7-1.3-5.4c-1.4-2.5-4.5-3.2-6.8-2.5
		c-3.9,1.1-6.1,4-6.6,7.9c-0.3,2.1-0.5,4.1-0.5,6.2c-0.1,7.2,0,14.5,0,21.7c0,0.5,0,0.9,0,1.4c-3.3,0-6.5,0-9.8,0
		C27.6,73.9,27.6,59.2,27.6,44.5z"/>
	<path d="M238.8,49.7c0-1.8,0-3.4,0-5.1c3.5,0,6.8,0,10.2,0c0,14.6,0,29.3,0,44.1c-3.2,0-6.4,0-9.7,0c0-1.8,0-3.6,0-5.7
		c-0.8,0.9-1.4,1.6-2,2.3c-2,2.2-4.4,3.4-7.2,4.1c-6.2,1.3-11.4-0.3-15.7-4.8c-2.1-2.3-3.5-5-4.4-8c-1.2-4.1-1.8-8.3-1.4-12.5
		c0.6-6,2.1-11.7,6.6-16.1c3.6-3.5,8.1-4.9,13.1-4.3c4.1,0.5,7.5,2.6,10.1,5.9C238.4,49.4,238.5,49.5,238.8,49.7z M239.4,66.8
		c0.1-4.6-0.7-7.8-2.2-10.5c-1.5-2.9-3.8-4.8-7-5.1c-5.2-0.5-8.3,2.8-9.8,7c-1.1,3.1-1.3,6.3-1.2,9.6c0.1,2.8,0.5,5.6,1.6,8.1
		c1.4,3.1,3.6,5.4,7.1,5.9c4.1,0.6,7.5-1.5,9.4-5.2C238.9,73.4,239.5,70.1,239.4,66.8z"/>
	<path d="M381.6,49.5c0-1.6,0-3.2,0-4.9c3.5,0,6.8,0,10.2,0c0,14.6,0,29.3,0,44.1c-3.2,0-6.4,0-9.7,0c0-1.9,0-3.6,0-5.3
		c-1.6,1.4-3,3.1-4.8,4.3c-3.6,2.2-7.5,2.7-11.7,1.7c-6.4-1.4-10.2-5.6-12.3-11.5c-0.8-2.1-1.2-4.4-1.5-6.6
		c-0.3-2.4-0.6-4.8-0.4-7.2c0.5-6,2-11.8,6.6-16.1c3.6-3.5,8.1-4.9,13.1-4.3c4.1,0.5,7.4,2.6,10,5.8c0.1,0.1,0.2,0.2,0.3,0.3
		C381.4,49.5,381.4,49.5,381.6,49.5z M382.4,66.5c-0.3-1.8-0.3-3.6-0.8-5.4c-0.5-2-1.1-4-2.1-5.7C377,51,371.9,50,368,52.1
		c-3,1.7-4.4,4.6-5.3,7.8c-0.7,2.6-0.7,5.3-0.7,8.1c0.1,2.8,0.6,5.4,1.6,8c1.3,3.1,3.6,5.4,7,5.9c4.1,0.6,7.5-1.4,9.4-5.2
		C381.8,73.5,382.4,70.1,382.4,66.5z"/>
	<path d="M132.8,68.6c-9.9,0-19.6,0-29.1,0c0,1.4-0.2,2.8,0.1,4.1c0.6,3.6,1.6,7,5.1,8.8c2,1.1,4.1,1.5,6.5,1.1
		c4.4-0.7,6.4-3.5,7.4-7.4c0.2-0.7,0.4-1.3,0.7-2.2c1.4,0.3,2.9,0.6,4.4,0.9c1.1,0.3,2.3,0.7,3.4,0.8c1.2,0.1,1.4,0.8,1.1,1.6
		c-1.7,5-4.7,8.9-9.6,11.3c-3.8,1.9-7.9,2.5-12,2c-5.9-0.7-10.6-3.5-13.9-8.6c-2-3.1-3.4-6.4-3.6-10.1c-0.2-2.1-0.5-4.3-0.3-6.3
		c0.6-6.2,2.5-11.9,7.2-16.2c2.5-2.3,5.5-4,9-4.4c2.1-0.3,4.3-0.6,6.3-0.4c6.7,0.6,11.8,3.6,15,9.8C132.9,58,133.2,63.1,132.8,68.6z
		 M113,61.8c2.7,0,5.3-0.1,8,0c0.9,0,1.3-0.3,1.2-1.2c-0.3-2.5-0.9-4.9-2.5-6.9c-2.1-2.8-4.9-3.9-8.4-3.2c-2.6,0.5-4.4,1.8-5.7,4.1
		c-0.9,1.7-1.3,3.5-1.6,5.4c-0.2,1.7-0.3,1.9,1.4,1.9C107.9,61.8,110.5,61.8,113,61.8z"/>
	<path d="M147.8,88.6c-3.3,0-6.5,0-9.8,0c0-14.7,0-29.3,0-44.1c3,0,6.1,0,9.3,0c0,1.9,0,3.8,0,5.7c0.1,0.1,0.2,0.1,0.3,0.2
		c0.5-0.5,1.1-1,1.5-1.6c2.1-2.6,4.6-4.3,7.9-5c4.4-1,8.5-0.5,12.3,2.1c2.4,1.6,3.9,4,4.7,6.7c0.8,2.6,0.9,5.3,0.9,8
		c-0.1,8.7,0,17.5,0,26.2c0,0.5,0,1,0,1.6c-3.4,0-6.7,0-10.2,0c0-0.5,0-0.9,0-1.4c0-9.4,0-18.8,0-28.1c0-2.8-0.9-5.2-3.3-6.8
		c-2.6-1.7-6.3-1.4-9,0.7c-2.2,1.7-3.8,4-4.1,6.8c-0.2,1.6-0.5,3.3-0.5,4.9c-0.1,7.5,0,15,0,22.5C147.8,87.5,147.8,88,147.8,88.6z"
		/>
	<path d="M288.2,88.6c0-2.7,0-5.1,0-7.8c0.5,0,1,0,1.4,0c5.5,0,10.9,0.1,16.4,0c1.1,0,2.3-0.2,3.3-0.5c2.2-0.6,2.9-3.8,1.4-5.8
		c-1.3-1.6-3.1-2.2-4.9-2.9c-4.5-1.7-9.3-2.6-13.6-5c-2.8-1.6-4.3-3.9-4.9-7.1c-0.7-3.5-0.1-6.6,1.7-9.6c1.4-2.3,3.5-3.6,6-4.5
		c2.9-1,5.8-1.1,8.8-1c4.8,0.1,9.6,0,14.6,0c-0.2,1.2-0.3,2.3-0.5,3.3c-0.1,0.6-0.1,1.3-0.2,1.9c-0.1,2.5-0.1,2.5-2.7,2.5
		c-4.6,0-9.3-0.1-13.9,0c-1.7,0-3.4,0.5-4.5,2c-1.2,1.8-1.1,5,1.6,6.2c2,0.9,4.1,1.4,6.2,2.1c4,1.3,8.3,2,11.8,4.6
		c2.6,2,3.9,4.7,4,8c0.1,3-0.2,5.9-2,8.4c-1.5,2.1-3.6,3.4-6,4.2c-2.9,1-5.9,1.1-8.9,1c-4.7-0.1-9.4,0-14,0
		C289.2,88.6,288.7,88.6,288.2,88.6z"/>
	<path d="M195.6,44.4c3.5,0,6.9,0,10.3,0c0,2.6,0,5.1,0,7.7c-3.3,0-6.7,0-10.2,0c-0.1,0.6-0.1,1-0.1,1.4c0,7.1-0.1,14.3,0.1,21.4
		c0,1.8,0.1,3.8,1.9,4.9c0.9,0.5,1.9,0.8,2.9,0.9c2.1,0.2,4.2,0.1,6.3,0.1c0,2.6,0,5.1,0,7.6c-0.1,0.1-0.1,0.2-0.2,0.2
		c-4.4,0-8.7,0.3-13.1-0.1c-3.9-0.3-6.4-1.7-7.3-6.5c-0.3-1.5-0.5-3.1-0.5-4.7c-0.1-7.9-0.1-15.8,0-23.6c0-1.1-0.3-1.6-1.5-1.5
		c-1.9,0.1-3.7,0.1-5.7,0.1c0-2.6,0-5,0-7.7c2.3,0,4.6,0,7,0c0-4.7,0-9.3,0-13.9c3.3,0,6.5,0,9.8,0
		C195.6,35.1,195.6,39.7,195.6,44.4z"/>
	<path d="M328.7,30.4c3.3,0,6.5,0,9.8,0c0,4.6,0,9.2,0,13.9c3.5,0,6.9,0,10.3,0c0,2.6,0,5.1,0,7.7c-3.3,0-6.7,0-10.1,0
		c-0.1,0.4-0.2,0.8-0.2,1.1c0,7.4-0.1,14.8,0.1,22.2c0,1.6,0.2,3.5,1.9,4.5c0.8,0.5,1.9,0.8,2.8,0.9c2.1,0.2,4.2,0.1,6.4,0.1
		c0,2.6,0,5,0,7.7c-0.3,0.1-0.6,0.1-0.9,0.1c-3.8,0-7.6,0.1-11.4,0c-2.6-0.1-5.1-0.7-6.7-3c-1.3-1.9-1.9-4-1.9-6.2
		c-0.1-8.6-0.1-17.1-0.1-25.7c0-1.3-0.3-1.7-1.6-1.6c-1.8,0.1-3.6,0.1-5.5,0.1c0-2.6,0-5,0-7.7c2.3,0,4.6,0,7.1,0
		C328.7,39.7,328.7,35.2,328.7,30.4z"/>
	<path d="M266,88.6c-3.2,0-6.4,0-9.7,0c0-19.3,0-38.6,0-58c3.2,0,6.4,0,9.7,0C266,49.9,266,69.1,266,88.6z"/>
	<path d="M282.9,88.6c-3.2,0-6.4,0-9.7,0c0-0.5-0.1-0.9-0.1-1.4c0-13.7,0-27.4-0.1-41.1c0-1.2,0.3-1.7,1.6-1.7
		c2.7,0.1,5.4,0.1,8.2,0.1C282.9,59.2,282.9,73.8,282.9,88.6z"/>
	<path d="M282.9,30.6c0,2.5,0,5,0,7.6c-1.4,0-2.8,0-4.2,0c-1.5,0-3.1,0.1-4.6-0.1c-0.3,0-0.9-0.5-0.9-0.7c-0.1-2.3-0.1-4.5-0.1-6.8
		C276.5,30.6,279.6,30.6,282.9,30.6z"/>
</g>
</svg>
