<svg x="0" y="0" width="1440" height="816" version="1.1" xmlns="http://www.w3.org/2000/svg" xmlns:xlink="http://www.w3.org/1999/xlink"><defs><linearGradient x1="720" y1="238" x2="640" y2="398" gradientUnits="userSpaceOnUse" id="color-1"><stop offset="0" stop-color="#ffffff"/><stop offset="1" stop-color="#ff0000"/></linearGradient><linearGradient x1="640" y1="398" x2="800" y2="238" gradientUnits="userSpaceOnUse" id="color-2"><stop offset="0" stop-color="#ffffff"/><stop offset="1" stop-color="#ff0000"/></linearGradient><linearGradient x1="720" y1="398" x2="800" y2="398" gradientUnits="userSpaceOnUse" id="color-3"><stop offset="0" stop-color="#ffffff"/><stop offset="1" stop-color="#ff0000"/></linearGradient><linearGradient x1="800" y1="478" x2="880" y2="318" gradientUnits="userSpaceOnUse" id="color-4"><stop offset="0" stop-color="#ffffff"/><stop offset="1" stop-color="#ff0000"/></linearGradient><linearGradient x1="720" y1="318" x2="720" y2="478" gradientUnits="userSpaceOnUse" id="color-5"><stop offset="0" stop-color="#ffffff"/><stop offset="1" stop-color="#ff0000"/></linearGradient><linearGradient x1="640" y1="478" x2="800" y2="398" gradientUnits="userSpaceOnUse" id="color-6"><stop offset="0" stop-color="#ffffff"/><stop offset="1" stop-color="#ff0000"/></linearGradient><linearGradient x1="800" y1="398" x2="800" y2="238" gradientUnits="userSpaceOnUse" id="color-7"><stop offset="0" stop-color="#ffffff"/><stop offset="1" stop-color="#ff0000"/></linearGradient><linearGradient x1="640" y1="238" x2="640" y2="478" gradientUnits="userSpaceOnUse" id="color-8"><stop offset="0" stop-color="#ffffff"/><stop offset="1" stop-color="#ff0000"/></linearGradient><linearGradient x1="800" y1="478" x2="800" y2="318" gradientUnits="userSpaceOnUse" id="color-9"><stop offset="0" stop-color="#ffffff"/><stop offset="1" stop-color="#ff0000"/></linearGradient><linearGradient x1="640" y1="238" x2="800" y2="238" gradientUnits="userSpaceOnUse" id="color-10"><stop offset="0" stop-color="#ffffff"/><stop offset="1" stop-color="#ff0000"/></linearGradient><linearGradient x1="800" y1="478" x2="640" y2="238" gradientUnits="userSpaceOnUse" id="color-11"><stop offset="0" stop-color="#ffffff"/><stop offset="1" stop-color="#ff0000"/></linearGradient><linearGradient x1="800" y1="238" x2="720" y2="238" gradientUnits="userSpaceOnUse" id="color-12"><stop offset="0" stop-color="#ffffff"/><stop offset="1" stop-color="#ff0000"/></linearGradient><linearGradient x1="720" y1="238" x2="800" y2="238" gradientUnits="userSpaceOnUse" id="color-13"><stop offset="0" stop-color="#ffffff"/><stop offset="1" stop-color="#ff0000"/></linearGradient><linearGradient x1="720" y1="238" x2="800" y2="238" gradientUnits="userSpaceOnUse" id="color-14"><stop offset="0" stop-color="#ffffff"/><stop offset="1" stop-color="#ff0000"/></linearGradient><linearGradient x1="560" y1="318" x2="880" y2="318" gradientUnits="userSpaceOnUse" id="color-15"><stop offset="0" stop-color="#ffffff"/><stop offset="1" stop-color="#ff0000"/></linearGradient><linearGradient x1="880" y1="398" x2="560" y2="398" gradientUnits="userSpaceOnUse" id="color-16"><stop offset="0" stop-color="#ffffff"/><stop offset="1" stop-color="#ff0000"/></linearGradient><linearGradient x1="880" y1="318" x2="720" y2="238" gradientUnits="userSpaceOnUse" id="color-17"><stop offset="0" stop-color="#ffffff"/><stop offset="1" stop-color="#ff0000"/></linearGradient><linearGradient x1="800" y1="478" x2="720" y2="478" gradientUnits="userSpaceOnUse" id="color-18"><stop offset="0" stop-color="#ffffff"/><stop offset="1" stop-color="#ff0000"/></linearGradient><linearGradient x1="560" y1="318" x2="720" y2="238" gradientUnits="userSpaceOnUse" id="color-19"><stop offset="0" stop-color="#ffffff"/><stop offset="1" stop-color="#ff0000"/></linearGradient><linearGradient x1="640" y1="398" x2="800" y2="398" gradientUnits="userSpaceOnUse" id="color-20"><stop offset="0" stop-color="#ffffff"/><stop offset="1" stop-color="#ff0000"/></linearGradient><linearGradient x1="800" y1="478" x2="640" y2="238" gradientUnits="userSpaceOnUse" id="color-21"><stop offset="0" stop-color="#ffffff"/><stop offset="1" stop-color="#ff0000"/></linearGradient><linearGradient x1="720" y1="478" x2="720" y2="238" gradientUnits="userSpaceOnUse" id="color-22"><stop offset="0" stop-color="#ffffff"/><stop offset="1" stop-color="#ff0000"/></linearGradient><linearGradient x1="560" y1="398" x2="880" y2="398" gradientUnits="userSpaceOnUse" id="color-23"><stop offset="0" stop-color="#ffffff"/><stop offset="1" stop-color="#ff0000"/></linearGradient><linearGradient x1="640" y1="478" x2="720" y2="478" gradientUnits="userSpaceOnUse" id="color-24"><stop offset="0" stop-color="#ffffff"/><stop offset="1" stop-color="#ff0000"/></linearGradient><linearGradient x1="720" y1="478" x2="720" y2="238" gradientUnits="userSpaceOnUse" id="color-25"><stop offset="0" stop-color="#ffffff"/><stop offset="1" stop-color="#ff0000"/></linearGradient><linearGradient x1="720" y1="238" x2="800" y2="318" gradientUnits="userSpaceOnUse" id="color-26"><stop offset="0" stop-color="#ffffff"/><stop offset="1" stop-color="#ff0000"/></linearGradient><linearGradient x1="800" y1="238" x2="800" y2="398" gradientUnits="userSpaceOnUse" id="color-27"><stop offset="0" stop-color="#ffffff"/><stop offset="1" stop-color="#ff0000"/></linearGradient><linearGradient x1="720" y1="318" x2="880" y2="318" gradientUnits="userSpaceOnUse" id="color-28"><stop offset="0" stop-color="#ffffff"/><stop offset="1" stop-color="#ff0000"/></linearGradient></defs><g fill="none" stroke="none" stroke-width="none" stroke-linecap="none" stroke-linejoin="miter" stroke-miterlimit="none" stroke-dasharray="" stroke-dashoffset="0" font-family="none" font-weight="normal" font-size="none" text-anchor="start" mix-blend-mode="normal"><path d="M720,238c0,80 0,160 -80,160" stroke="url(#color-1)" stroke-width="11" stroke-linecap="square" stroke-miterlimit="10" font-family="sans-serif" font-size="12"/><path d="M640,398c0,-80 80,-160 160,-160" stroke="url(#color-2)" stroke-width="11" stroke-linecap="square" stroke-miterlimit="10" font-family="sans-serif" font-size="12"/><path d="M720,398l80,0" stroke="url(#color-3)" stroke-width="11" stroke-linecap="square" stroke-miterlimit="10" font-family="sans-serif" font-size="12"/><path d="M800,478c80,0 80,-80 80,-160" stroke="url(#color-4)" stroke-width="11" stroke-linecap="square" stroke-miterlimit="10" font-family="sans-serif" font-size="12"/><path d="M720,318l0,160" stroke="url(#color-5)" stroke-width="11" stroke-linecap="square" stroke-miterlimit="10" font-family="sans-serif" font-size="12"/><path d="M640,478c0,-80 80,-80 160,-80" stroke="url(#color-6)" stroke-width="11" stroke-linecap="square" stroke-miterlimit="10" font-family="sans-serif" font-size="12"/><path d="M800,398l0,-160" stroke="url(#color-7)" stroke-width="11" stroke-linecap="square" stroke-miterlimit="10" font-family="sans-serif" font-size="12"/><path d="M640,238l0,240" stroke="url(#color-8)" stroke-width="11" stroke-linecap="square" stroke-miterlimit="10" font-family="sans-serif" font-size="12"/><path d="M800,478l0,-160" stroke="url(#color-9)" stroke-width="11" stroke-linecap="square" stroke-miterlimit="10" font-family="sans-serif" font-size="12"/><path d="M640,238l160,0" stroke="url(#color-10)" stroke-width="11" stroke-linecap="square" stroke-miterlimit="10" font-family="sans-serif" font-size="12"/><path d="M800,478c-80,0 -160,-160 -160,-240" stroke="url(#color-11)" stroke-width="11" stroke-linecap="square" stroke-miterlimit="10" font-family="sans-serif" font-size="12"/><path d="M800,238l-80,0" stroke="url(#color-12)" stroke-width="11" stroke-linecap="square" stroke-miterlimit="10" font-family="sans-serif" font-size="12"/><path d="M720,238l80,0" stroke="url(#color-13)" stroke-width="11" stroke-linecap="square" stroke-miterlimit="10" font-family="sans-serif" font-size="12"/><path d="M720,238l80,0" stroke="url(#color-14)" stroke-width="11" stroke-linecap="square" stroke-miterlimit="10" font-family="sans-serif" font-size="12"/><path d="M560,318l320,0" stroke="url(#color-15)" stroke-width="11" stroke-linecap="square" stroke-miterlimit="10" font-family="sans-serif" font-size="12"/><path d="M880,398l-320,0" stroke="url(#color-16)" stroke-width="11" stroke-linecap="square" stroke-miterlimit="10" font-family="sans-serif" font-size="12"/><path d="M880,318c-80,0 -160,0 -160,-80" stroke="url(#color-17)" stroke-width="11" stroke-linecap="square" stroke-miterlimit="10" font-family="sans-serif" font-size="12"/><path d="M800,478l-80,0" stroke="url(#color-18)" stroke-width="11" stroke-linecap="square" stroke-miterlimit="10" font-family="sans-serif" font-size="12"/><path d="M560,318c0,-80 80,-80 160,-80" stroke="url(#color-19)" stroke-width="11" stroke-linecap="square" stroke-miterlimit="10" font-family="sans-serif" font-size="12"/><path d="M640,398l160,0" stroke="url(#color-20)" stroke-width="11" stroke-linecap="square" stroke-miterlimit="10" font-family="sans-serif" font-size="12"/><path d="M800,478c0,-80 -80,-240 -160,-240" stroke="url(#color-21)" stroke-width="11" stroke-linecap="square" stroke-miterlimit="10" font-family="sans-serif" font-size="12"/><path d="M720,478l0,-240" stroke="url(#color-22)" stroke-width="11" stroke-linecap="square" stroke-miterlimit="10" font-family="sans-serif" font-size="12"/><path d="M560,398l320,0" stroke="url(#color-23)" stroke-width="11" stroke-linecap="square" stroke-miterlimit="10" font-family="sans-serif" font-size="12"/><path d="M640,478l80,0" stroke="url(#color-24)" stroke-width="11" stroke-linecap="square" stroke-miterlimit="10" font-family="sans-serif" font-size="12"/><path d="M720,478l0,-240" stroke="url(#color-25)" stroke-width="11" stroke-linecap="square" stroke-miterlimit="10" font-family="sans-serif" font-size="12"/><path d="M720,238c80,0 80,0 80,80" stroke="url(#color-26)" stroke-width="11" stroke-linecap="square" stroke-miterlimit="10" font-family="sans-serif" font-size="12"/><path d="M800,238l0,160" stroke="url(#color-27)" stroke-width="11" stroke-linecap="square" stroke-miterlimit="10" font-family="sans-serif" font-size="12"/><path d="M720,318l160,0" stroke="url(#color-28)" stroke-width="11" stroke-linecap="square" stroke-miterlimit="10" font-family="sans-serif" font-size="12"/><path d="M793,485l0,-14l14,0l0,14z" fill="#000000" stroke="#000000" stroke-width="1" stroke-linecap="butt" stroke-miterlimit="10" font-family="sans-serif" font-size="12"/><path d="M713,485l0,-14l14,0l0,14z" fill="#000000" stroke="#000000" stroke-width="1" stroke-linecap="butt" stroke-miterlimit="10" font-family="sans-serif" font-size="12"/><path d="M633,485l0,-14l14,0l0,14z" fill="#000000" stroke="#000000" stroke-width="1" stroke-linecap="butt" stroke-miterlimit="10" font-family="sans-serif" font-size="12"/><path d="M873,405l0,-14l14,0l0,14z" fill="#000000" stroke="#000000" stroke-width="1" stroke-linecap="butt" stroke-miterlimit="10" font-family="sans-serif" font-size="12"/><path d="M793,405l0,-14l14,0l0,14z" fill="#000000" stroke="#000000" stroke-width="1" stroke-linecap="butt" stroke-miterlimit="10" font-family="sans-serif" font-size="12"/><path d="M713,405l0,-14l14,0l0,14z" fill="#000000" stroke="#000000" stroke-width="1" stroke-linecap="butt" stroke-miterlimit="10" font-family="sans-serif" font-size="12"/><path d="M633,405l0,-14l14,0l0,14z" fill="#000000" stroke="#000000" stroke-width="1" stroke-linecap="butt" stroke-miterlimit="10" font-family="sans-serif" font-size="12"/><path d="M553,405l0,-14l14,0l0,14z" fill="#000000" stroke="#000000" stroke-width="1" stroke-linecap="butt" stroke-miterlimit="10" font-family="sans-serif" font-size="12"/><path d="M873,325l0,-14l14,0l0,14z" fill="#000000" stroke="#000000" stroke-width="1" stroke-linecap="butt" stroke-miterlimit="10" font-family="sans-serif" font-size="12"/><path d="M793,325l0,-14l14,0l0,14z" fill="#000000" stroke="#000000" stroke-width="1" stroke-linecap="butt" stroke-miterlimit="10" font-family="sans-serif" font-size="12"/><path d="M713,325l0,-14l14,0l0,14z" fill="#000000" stroke="#000000" stroke-width="1" stroke-linecap="butt" stroke-miterlimit="10" font-family="sans-serif" font-size="12"/><path d="M633,325l0,-14l14,0l0,14z" fill="#000000" stroke="#000000" stroke-width="1" stroke-linecap="butt" stroke-miterlimit="10" font-family="sans-serif" font-size="12"/><path d="M553,325l0,-14l14,0l0,14z" fill="#000000" stroke="#000000" stroke-width="1" stroke-linecap="butt" stroke-miterlimit="10" font-family="sans-serif" font-size="12"/><path d="M793,245l0,-14l14,0l0,14z" fill="#000000" stroke="#000000" stroke-width="1" stroke-linecap="butt" stroke-miterlimit="10" font-family="sans-serif" font-size="12"/><path d="M713,245l0,-14l14,0l0,14z" fill="#000000" stroke="#000000" stroke-width="1" stroke-linecap="butt" stroke-miterlimit="10" font-family="sans-serif" font-size="12"/><path d="M633,245l0,-14l14,0l0,14z" fill="#000000" stroke="#000000" stroke-width="1" stroke-linecap="butt" stroke-miterlimit="10" font-family="sans-serif" font-size="12"/><g id="Calque_1" fill="#000000" stroke="none" stroke-width="1" stroke-linecap="butt" stroke-miterlimit="4" font-family="-webkit-standard" font-size="16"><g><path d="M537.95,549.35359c3.1,0 6.2,0 9.3,0c0,1.7 0,3.4 0,5.1c0.1,0.1 0.3,0.2 0.4,0.3c2,-2.8 4.2,-5.1 7.6,-6c3.4,-0.9 6.8,-0.8 10.1,0.5c3.4,1.3 5.4,3.8 6.7,6.9c1.5,-1.7 2.9,-3.5 4.6,-5.1c1.3,-1.3 3,-2.1 4.8,-2.4c1.7,-0.2 3.4,-0.6 5,-0.4c4.6,0.3 8.9,2.9 10.7,8.1c0.7,2.1 1,4.1 1,6.2c0,9.9 0,19.9 0,29.8c0,0.3 -0.1,0.7 -0.1,1.1c-3.2,0 -6.4,0 -9.8,0c0,-0.5 0,-1 0,-1.5c0,-9.2 0.1,-18.4 -0.1,-27.6c0,-1.7 -0.4,-3.4 -1,-5c-1,-2.7 -4.5,-3.9 -7.4,-3c-4.1,1.2 -5.8,4.3 -6.4,8.2c-0.4,2.7 -0.5,5.5 -0.5,8.3c-0.1,6.4 0,12.8 0,19.3c0,0.5 0,0.9 0,1.4c-3.3,0 -6.5,0 -9.9,0c0,-0.5 0,-1 0,-1.5c0,-9.3 0.1,-18.6 -0.1,-27.9c0,-1.9 -0.4,-3.7 -1.3,-5.4c-1.4,-2.5 -4.5,-3.2 -6.8,-2.5c-3.9,1.1 -6.1,4 -6.6,7.9c-0.3,2.1 -0.5,4.1 -0.5,6.2c-0.1,7.2 0,14.5 0,21.7c0,0.5 0,0.9 0,1.4c-3.3,0 -6.5,0 -9.8,0c0.1,-14.7 0.1,-29.4 0.1,-44.1z"/><path d="M749.15,554.55359c0,-1.8 0,-3.4 0,-5.1c3.5,0 6.8,0 10.2,0c0,14.6 0,29.3 0,44.1c-3.2,0 -6.4,0 -9.7,0c0,-1.8 0,-3.6 0,-5.7c-0.8,0.9 -1.4,1.6 -2,2.3c-2,2.2 -4.4,3.4 -7.2,4.1c-6.2,1.3 -11.4,-0.3 -15.7,-4.8c-2.1,-2.3 -3.5,-5 -4.4,-8c-1.2,-4.1 -1.8,-8.3 -1.4,-12.5c0.6,-6 2.1,-11.7 6.6,-16.1c3.6,-3.5 8.1,-4.9 13.1,-4.3c4.1,0.5 7.5,2.6 10.1,5.9c0,-0.2 0.1,-0.1 0.4,0.1z M749.75,571.65359c0.1,-4.6 -0.7,-7.8 -2.2,-10.5c-1.5,-2.9 -3.8,-4.8 -7,-5.1c-5.2,-0.5 -8.3,2.8 -9.8,7c-1.1,3.1 -1.3,6.3 -1.2,9.6c0.1,2.8 0.5,5.6 1.6,8.1c1.4,3.1 3.6,5.4 7.1,5.9c4.1,0.6 7.5,-1.5 9.4,-5.2c1.6,-3.2 2.2,-6.5 2.1,-9.8z"/><path d="M891.95,554.35359c0,-1.6 0,-3.2 0,-4.9c3.5,0 6.8,0 10.2,0c0,14.6 0,29.3 0,44.1c-3.2,0 -6.4,0 -9.7,0c0,-1.9 0,-3.6 0,-5.3c-1.6,1.4 -3,3.1 -4.8,4.3c-3.6,2.2 -7.5,2.7 -11.7,1.7c-6.4,-1.4 -10.2,-5.6 -12.3,-11.5c-0.8,-2.1 -1.2,-4.4 -1.5,-6.6c-0.3,-2.4 -0.6,-4.8 -0.4,-7.2c0.5,-6 2,-11.8 6.6,-16.1c3.6,-3.5 8.1,-4.9 13.1,-4.3c4.1,0.5 7.4,2.6 10,5.8c0.1,0.1 0.2,0.2 0.3,0.3c0,-0.3 0,-0.3 0.2,-0.3z M892.75,571.35359c-0.3,-1.8 -0.3,-3.6 -0.8,-5.4c-0.5,-2 -1.1,-4 -2.1,-5.7c-2.5,-4.4 -7.6,-5.4 -11.5,-3.3c-3,1.7 -4.4,4.6 -5.3,7.8c-0.7,2.6 -0.7,5.3 -0.7,8.1c0.1,2.8 0.6,5.4 1.6,8c1.3,3.1 3.6,5.4 7,5.9c4.1,0.6 7.5,-1.4 9.4,-5.2c1.8,-3.2 2.4,-6.6 2.4,-10.2z"/><path d="M643.15,573.45359c-9.9,0 -19.6,0 -29.1,0c0,1.4 -0.2,2.8 0.1,4.1c0.6,3.6 1.6,7 5.1,8.8c2,1.1 4.1,1.5 6.5,1.1c4.4,-0.7 6.4,-3.5 7.4,-7.4c0.2,-0.7 0.4,-1.3 0.7,-2.2c1.4,0.3 2.9,0.6 4.4,0.9c1.1,0.3 2.3,0.7 3.4,0.8c1.2,0.1 1.4,0.8 1.1,1.6c-1.7,5 -4.7,8.9 -9.6,11.3c-3.8,1.9 -7.9,2.5 -12,2c-5.9,-0.7 -10.6,-3.5 -13.9,-8.6c-2,-3.1 -3.4,-6.4 -3.6,-10.1c-0.2,-2.1 -0.5,-4.3 -0.3,-6.3c0.6,-6.2 2.5,-11.9 7.2,-16.2c2.5,-2.3 5.5,-4 9,-4.4c2.1,-0.3 4.3,-0.6 6.3,-0.4c6.7,0.6 11.8,3.6 15,9.8c2.4,4.6 2.7,9.7 2.3,15.2z M623.35,566.65359c2.7,0 5.3,-0.1 8,0c0.9,0 1.3,-0.3 1.2,-1.2c-0.3,-2.5 -0.9,-4.9 -2.5,-6.9c-2.1,-2.8 -4.9,-3.9 -8.4,-3.2c-2.6,0.5 -4.4,1.8 -5.7,4.1c-0.9,1.7 -1.3,3.5 -1.6,5.4c-0.2,1.7 -0.3,1.9 1.4,1.9c2.5,-0.1 5.1,-0.1 7.6,-0.1z"/><path d="M658.15,593.45359c-3.3,0 -6.5,0 -9.8,0c0,-14.7 0,-29.3 0,-44.1c3,0 6.1,0 9.3,0c0,1.9 0,3.8 0,5.7c0.1,0.1 0.2,0.1 0.3,0.2c0.5,-0.5 1.1,-1 1.5,-1.6c2.1,-2.6 4.6,-4.3 7.9,-5c4.4,-1 8.5,-0.5 12.3,2.1c2.4,1.6 3.9,4 4.7,6.7c0.8,2.6 0.9,5.3 0.9,8c-0.1,8.7 0,17.5 0,26.2c0,0.5 0,1 0,1.6c-3.4,0 -6.7,0 -10.2,0c0,-0.5 0,-0.9 0,-1.4c0,-9.4 0,-18.8 0,-28.1c0,-2.8 -0.9,-5.2 -3.3,-6.8c-2.6,-1.7 -6.3,-1.4 -9,0.7c-2.2,1.7 -3.8,4 -4.1,6.8c-0.2,1.6 -0.5,3.3 -0.5,4.9c-0.1,7.5 0,15 0,22.5c0,0.5 0,1 0,1.6z"/><path d="M798.55,593.45359c0,-2.7 0,-5.1 0,-7.8c0.5,0 1,0 1.4,0c5.5,0 10.9,0.1 16.4,0c1.1,0 2.3,-0.2 3.3,-0.5c2.2,-0.6 2.9,-3.8 1.4,-5.8c-1.3,-1.6 -3.1,-2.2 -4.9,-2.9c-4.5,-1.7 -9.3,-2.6 -13.6,-5c-2.8,-1.6 -4.3,-3.9 -4.9,-7.1c-0.7,-3.5 -0.1,-6.6 1.7,-9.6c1.4,-2.3 3.5,-3.6 6,-4.5c2.9,-1 5.8,-1.1 8.8,-1c4.8,0.1 9.6,0 14.6,0c-0.2,1.2 -0.3,2.3 -0.5,3.3c-0.1,0.6 -0.1,1.3 -0.2,1.9c-0.1,2.5 -0.1,2.5 -2.7,2.5c-4.6,0 -9.3,-0.1 -13.9,0c-1.7,0 -3.4,0.5 -4.5,2c-1.2,1.8 -1.1,5 1.6,6.2c2,0.9 4.1,1.4 6.2,2.1c4,1.3 8.3,2 11.8,4.6c2.6,2 3.9,4.7 4,8c0.1,3 -0.2,5.9 -2,8.4c-1.5,2.1 -3.6,3.4 -6,4.2c-2.9,1 -5.9,1.1 -8.9,1c-4.7,-0.1 -9.4,0 -14,0c-0.1,0 -0.6,0 -1.1,0z"/><path d="M705.95,549.25359c3.5,0 6.9,0 10.3,0c0,2.6 0,5.1 0,7.7c-3.3,0 -6.7,0 -10.2,0c-0.1,0.6 -0.1,1 -0.1,1.4c0,7.1 -0.1,14.3 0.1,21.4c0,1.8 0.1,3.8 1.9,4.9c0.9,0.5 1.9,0.8 2.9,0.9c2.1,0.2 4.2,0.1 6.3,0.1c0,2.6 0,5.1 0,7.6c-0.1,0.1 -0.1,0.2 -0.2,0.2c-4.4,0 -8.7,0.3 -13.1,-0.1c-3.9,-0.3 -6.4,-1.7 -7.3,-6.5c-0.3,-1.5 -0.5,-3.1 -0.5,-4.7c-0.1,-7.9 -0.1,-15.8 0,-23.6c0,-1.1 -0.3,-1.6 -1.5,-1.5c-1.9,0.1 -3.7,0.1 -5.7,0.1c0,-2.6 0,-5 0,-7.7c2.3,0 4.6,0 7,0c0,-4.7 0,-9.3 0,-13.9c3.3,0 6.5,0 9.8,0c0.3,4.4 0.3,9 0.3,13.7z"/><path d="M839.05,535.25359c3.3,0 6.5,0 9.8,0c0,4.6 0,9.2 0,13.9c3.5,0 6.9,0 10.3,0c0,2.6 0,5.1 0,7.7c-3.3,0 -6.7,0 -10.1,0c-0.1,0.4 -0.2,0.8 -0.2,1.1c0,7.4 -0.1,14.8 0.1,22.2c0,1.6 0.2,3.5 1.9,4.5c0.8,0.5 1.9,0.8 2.8,0.9c2.1,0.2 4.2,0.1 6.4,0.1c0,2.6 0,5 0,7.7c-0.3,0.1 -0.6,0.1 -0.9,0.1c-3.8,0 -7.6,0.1 -11.4,0c-2.6,-0.1 -5.1,-0.7 -6.7,-3c-1.3,-1.9 -1.9,-4 -1.9,-6.2c-0.1,-8.6 -0.1,-17.1 -0.1,-25.7c0,-1.3 -0.3,-1.7 -1.6,-1.6c-1.8,0.1 -3.6,0.1 -5.5,0.1c0,-2.6 0,-5 0,-7.7c2.3,0 4.6,0 7.1,0c0,-4.8 0,-9.3 0,-14.1z"/><path d="M776.35,593.45359c-3.2,0 -6.4,0 -9.7,0c0,-19.3 0,-38.6 0,-58c3.2,0 6.4,0 9.7,0c0,19.3 0,38.5 0,58z"/><path d="M793.25,593.45359c-3.2,0 -6.4,0 -9.7,0c0,-0.5 -0.1,-0.9 -0.1,-1.4c0,-13.7 0,-27.4 -0.1,-41.1c0,-1.2 0.3,-1.7 1.6,-1.7c2.7,0.1 5.4,0.1 8.2,0.1c0.1,14.7 0.1,29.3 0.1,44.1z"/><path d="M793.25,535.45359c0,2.5 0,5 0,7.6c-1.4,0 -2.8,0 -4.2,0c-1.5,0 -3.1,0.1 -4.6,-0.1c-0.3,0 -0.9,-0.5 -0.9,-0.7c-0.1,-2.3 -0.1,-4.5 -0.1,-6.8c3.4,0 6.5,0 9.8,0z"/></g></g></g></svg>