<svg x="0" y="0" width="1440" height="745" version="1.1" xmlns="http://www.w3.org/2000/svg" xmlns:xlink="http://www.w3.org/1999/xlink"><defs><linearGradient x1="640" y1="442.5" x2="880" y2="362.5" gradientUnits="userSpaceOnUse" id="color-1"><stop offset="0" stop-color="#d2a7ae"/><stop offset="1" stop-color="#9b1757"/></linearGradient><linearGradient x1="640" y1="362.5" x2="640" y2="202.5" gradientUnits="userSpaceOnUse" id="color-2"><stop offset="0" stop-color="#d2a7ae"/><stop offset="1" stop-color="#9b1757"/></linearGradient><linearGradient x1="640" y1="362.5" x2="640" y2="202.5" gradientUnits="userSpaceOnUse" id="color-3"><stop offset="0" stop-color="#d2a7ae"/><stop offset="1" stop-color="#9b1757"/></linearGradient><linearGradient x1="800" y1="202.5" x2="720" y2="202.5" gradientUnits="userSpaceOnUse" id="color-4"><stop offset="0" stop-color="#d2a7ae"/><stop offset="1" stop-color="#9b1757"/></linearGradient><linearGradient x1="560" y1="362.5" x2="880" y2="282.5" gradientUnits="userSpaceOnUse" id="color-5"><stop offset="0" stop-color="#d2a7ae"/><stop offset="1" stop-color="#9b1757"/></linearGradient><linearGradient x1="640" y1="442.5" x2="640" y2="442.5" gradientUnits="userSpaceOnUse" id="color-6"><stop offset="0" stop-color="#d2a7ae"/><stop offset="1" stop-color="#9b1757"/></linearGradient></defs><g fill="none" stroke="none" stroke-width="none" stroke-linecap="none" stroke-linejoin="miter" stroke-miterlimit="10" stroke-dasharray="none" stroke-dashoffset="0" font-family="none" font-weight="normal" font-size="none" text-anchor="none" mix-blend-mode="normal"><path d="M640,442.5c240,0 240,0 240,-80" stroke="url(#color-1)" stroke-width="31" stroke-linecap="square" stroke-dasharray=",1000" font-family="sans-serif" font-size="12" text-anchor="start"/><path d="M640,362.5l0,-160" stroke="url(#color-2)" stroke-width="31" stroke-linecap="square" stroke-dasharray=",1000" font-family="sans-serif" font-size="12" text-anchor="start"/><path d="M640,362.5l0,-160" stroke="url(#color-3)" stroke-width="31" stroke-linecap="square" stroke-dasharray=",1000" font-family="sans-serif" font-size="12" text-anchor="start"/><path d="M800,202.5l-80,0" stroke="url(#color-4)" stroke-width="31" stroke-linecap="square" stroke-dasharray=",1000" font-family="sans-serif" font-size="12" text-anchor="start"/><path d="M560,362.5c0,-80 0,-80 320,-80" stroke="url(#color-5)" stroke-width="31" stroke-linecap="square" stroke-dasharray=",1000" font-family="sans-serif" font-size="12" text-anchor="start"/><path d="M640,442.5l0,0" stroke="url(#color-6)" stroke-width="31" stroke-linecap="square" stroke-dasharray=",1000" font-family="sans-serif" font-size="12" text-anchor="start"/><path d="M787,455.5l0,-26l26,0l0,26z" fill="#9b1757" stroke-width="1" stroke-linecap="butt" stroke-dasharray="" font-family="sans-serif" font-size="12" text-anchor="start"/><path d="M707,455.5l0,-26l26,0l0,26z" fill="#9b1757" stroke-width="1" stroke-linecap="butt" stroke-dasharray="" font-family="sans-serif" font-size="12" text-anchor="start"/><path d="M627,455.5l0,-26l26,0l0,26z" fill="#9b1757" stroke-width="1" stroke-linecap="butt" stroke-dasharray="" font-family="sans-serif" font-size="12" text-anchor="start"/><path d="M867,375.5l0,-26l26,0l0,26z" fill="#9b1757" stroke-width="1" stroke-linecap="butt" stroke-dasharray="" font-family="sans-serif" font-size="12" text-anchor="start"/><path d="M787,375.5l0,-26l26,0l0,26z" fill="#9b1757" stroke-width="1" stroke-linecap="butt" stroke-dasharray="" font-family="sans-serif" font-size="12" text-anchor="start"/><path d="M707,375.5l0,-26l26,0l0,26z" fill="#9b1757" stroke-width="1" stroke-linecap="butt" stroke-dasharray="" font-family="sans-serif" font-size="12" text-anchor="start"/><path d="M627,375.5l0,-26l26,0l0,26z" fill="#9b1757" stroke-width="1" stroke-linecap="butt" stroke-dasharray="" font-family="sans-serif" font-size="12" text-anchor="start"/><path d="M547,375.5l0,-26l26,0l0,26z" fill="#9b1757" stroke-width="1" stroke-linecap="butt" stroke-dasharray="" font-family="sans-serif" font-size="12" text-anchor="start"/><path d="M867,295.5l0,-26l26,0l0,26z" fill="#9b1757" stroke-width="1" stroke-linecap="butt" stroke-dasharray="" font-family="sans-serif" font-size="12" text-anchor="start"/><path d="M787,295.5l0,-26l26,0l0,26z" fill="#9b1757" stroke-width="1" stroke-linecap="butt" stroke-dasharray="" font-family="sans-serif" font-size="12" text-anchor="start"/><path d="M707,295.5l0,-26l26,0l0,26z" fill="#9b1757" stroke-width="1" stroke-linecap="butt" stroke-dasharray="" font-family="sans-serif" font-size="12" text-anchor="start"/><path d="M627,295.5l0,-26l26,0l0,26z" fill="#9b1757" stroke-width="1" stroke-linecap="butt" stroke-dasharray="" font-family="sans-serif" font-size="12" text-anchor="start"/><path d="M547,295.5l0,-26l26,0l0,26z" fill="#9b1757" stroke-width="1" stroke-linecap="butt" stroke-dasharray="" font-family="sans-serif" font-size="12" text-anchor="start"/><path d="M787,215.5l0,-26l26,0l0,26z" fill="#9b1757" stroke-width="1" stroke-linecap="butt" stroke-dasharray="" font-family="sans-serif" font-size="12" text-anchor="start"/><path d="M707,215.5l0,-26l26,0l0,26z" fill="#9b1757" stroke-width="1" stroke-linecap="butt" stroke-dasharray="" font-family="sans-serif" font-size="12" text-anchor="start"/><path d="M627,215.5l0,-26l26,0l0,26z" fill="#9b1757" stroke-width="1" stroke-linecap="butt" stroke-dasharray="" font-family="sans-serif" font-size="12" text-anchor="start"/><text x="720" y="556.5" fill="#9b1757" stroke-width="1" stroke-linecap="butt" stroke-dasharray="" font-family="Mentalista Grotesque" font-size="85" text-anchor="middle">mentalista</text></g></svg>