<svg version="1.1" xmlns="http://www.w3.org/2000/svg" xmlns:xlink="http://www.w3.org/1999/xlink" width="1146" height="668" viewBox="0,0,1146,668"><defs><linearGradient x1="653" y1="164" x2="653" y2="164" gradientUnits="userSpaceOnUse" id="color-1"><stop offset="0" stop-color="#fd8813"></stop><stop offset="1" stop-color="#1c5319"></stop></linearGradient><linearGradient x1="493" y1="164" x2="493" y2="244" gradientUnits="userSpaceOnUse" id="color-2"><stop offset="0" stop-color="#fd8813"></stop><stop offset="1" stop-color="#1c5319"></stop></linearGradient><linearGradient x1="733" y1="324" x2="653" y2="404" gradientUnits="userSpaceOnUse" id="color-3"><stop offset="0" stop-color="#fd8813"></stop><stop offset="1" stop-color="#1c5319"></stop></linearGradient><linearGradient x1="413" y1="324" x2="733" y2="244" gradientUnits="userSpaceOnUse" id="color-4"><stop offset="0" stop-color="#fd8813"></stop><stop offset="1" stop-color="#1c5319"></stop></linearGradient><linearGradient x1="573" y1="164" x2="573" y2="164" gradientUnits="userSpaceOnUse" id="color-5"><stop offset="0" stop-color="#fd8813"></stop><stop offset="1" stop-color="#1c5319"></stop></linearGradient><linearGradient x1="653" y1="164" x2="573" y2="404" gradientUnits="userSpaceOnUse" id="color-6"><stop offset="0" stop-color="#fd8813"></stop><stop offset="1" stop-color="#1c5319"></stop></linearGradient><linearGradient x1="653" y1="404" x2="493" y2="324" gradientUnits="userSpaceOnUse" id="color-7"><stop offset="0" stop-color="#fd8813"></stop><stop offset="1" stop-color="#1c5319"></stop></linearGradient><style type="text/css">@import url("https://assets.mentalista.fr/font/?family=mentalista-grotesque");</style></defs><g fill="none" fill-rule="nonzero" stroke="none" stroke-width="none" stroke-linecap="none" stroke-linejoin="miter" stroke-miterlimit="10" stroke-dasharray="none" stroke-dashoffset="0" font-family="none" font-weight="none" font-size="none" text-anchor="none" style="mix-blend-mode: normal"><path d="M653,164v0" fill="none" stroke="url(#color-1)" stroke-width="29" stroke-linecap="round" stroke-dasharray=",1000"></path><path d="M493,164v80" fill="none" stroke="url(#color-2)" stroke-width="29" stroke-linecap="round" stroke-dasharray=",1000"></path><path d="M733,324c0,80 0,80 -80,80" fill="none" stroke="url(#color-3)" stroke-width="29" stroke-linecap="round" stroke-dasharray=",1000"></path><path d="M413,324c0,-80 0,-80 320,-80" fill="none" stroke="url(#color-4)" stroke-width="29" stroke-linecap="round" stroke-dasharray=",1000"></path><path d="M573,164v0" fill="none" stroke="url(#color-5)" stroke-width="29" stroke-linecap="round" stroke-dasharray=",1000"></path><path d="M653,164c0,240 0,240 -80,240" fill="none" stroke="url(#color-6)" stroke-width="29" stroke-linecap="round" stroke-dasharray=",1000"></path><path d="M653,404c0,-80 0,-80 -160,-80" fill="none" stroke="url(#color-7)" stroke-width="29" stroke-linecap="round" stroke-dasharray=",1000"></path><path d="M486,171c-3.48978,-3.51062 -3.49796,-10.50354 0,-14c3.49796,-3.49646 10.50204,-3.49646 14,0c3.49796,3.49646 3.48978,10.48938 0,14c-3.48978,3.51062 -10.51022,3.51062 -14,0z" fill="#1c5319" stroke="none" stroke-width="1" stroke-linecap="butt" stroke-dasharray=""></path><path d="M566,171c-3.48978,-3.51062 -3.49796,-10.50354 0,-14c3.49796,-3.49646 10.50204,-3.49646 14,0c3.49796,3.49646 3.48978,10.48938 0,14c-3.48978,3.51062 -10.51022,3.51062 -14,0z" fill="#1c5319" stroke="none" stroke-width="1" stroke-linecap="butt" stroke-dasharray=""></path><path d="M646,171c-3.48978,-3.51062 -3.49796,-10.50354 0,-14c3.49796,-3.49646 10.50204,-3.49646 14,0c3.49796,3.49646 3.48978,10.48938 0,14c-3.48978,3.51062 -10.51022,3.51062 -14,0z" fill="#1c5319" stroke="none" stroke-width="1" stroke-linecap="butt" stroke-dasharray=""></path><path d="M406,251c-3.48978,-3.51062 -3.49796,-10.50354 0,-14c3.49796,-3.49646 10.50204,-3.49646 14,0c3.49796,3.49646 3.48978,10.48938 0,14c-3.48978,3.51062 -10.51022,3.51062 -14,0z" fill="#1c5319" stroke="none" stroke-width="1" stroke-linecap="butt" stroke-dasharray=""></path><path d="M486,251c-3.48978,-3.51062 -3.49796,-10.50354 0,-14c3.49796,-3.49646 10.50204,-3.49646 14,0c3.49796,3.49646 3.48978,10.48938 0,14c-3.48978,3.51062 -10.51022,3.51062 -14,0z" fill="#1c5319" stroke="none" stroke-width="1" stroke-linecap="butt" stroke-dasharray=""></path><path d="M566,251c-3.48978,-3.51062 -3.49796,-10.50354 0,-14c3.49796,-3.49646 10.50204,-3.49646 14,0c3.49796,3.49646 3.48978,10.48938 0,14c-3.48978,3.51062 -10.51022,3.51062 -14,0z" fill="#1c5319" stroke="none" stroke-width="1" stroke-linecap="butt" stroke-dasharray=""></path><path d="M646,251c-3.48978,-3.51062 -3.49796,-10.50354 0,-14c3.49796,-3.49646 10.50204,-3.49646 14,0c3.49796,3.49646 3.48978,10.48938 0,14c-3.48978,3.51062 -10.51022,3.51062 -14,0z" fill="#1c5319" stroke="none" stroke-width="1" stroke-linecap="butt" stroke-dasharray=""></path><path d="M726,251c-3.48978,-3.51062 -3.49796,-10.50354 0,-14c3.49796,-3.49646 10.50204,-3.49646 14,0c3.49796,3.49646 3.48978,10.48938 0,14c-3.48978,3.51062 -10.51022,3.51062 -14,0z" fill="#1c5319" stroke="none" stroke-width="1" stroke-linecap="butt" stroke-dasharray=""></path><path d="M406,331c-3.48978,-3.51062 -3.49796,-10.50354 0,-14c3.49796,-3.49646 10.50204,-3.49646 14,0c3.49796,3.49646 3.48978,10.48938 0,14c-3.48978,3.51062 -10.51022,3.51062 -14,0z" fill="#1c5319" stroke="none" stroke-width="1" stroke-linecap="butt" stroke-dasharray=""></path><path d="M486,331c-3.48978,-3.51062 -3.49796,-10.50354 0,-14c3.49796,-3.49646 10.50204,-3.49646 14,0c3.49796,3.49646 3.48978,10.48938 0,14c-3.48978,3.51062 -10.51022,3.51062 -14,0z" fill="#1c5319" stroke="none" stroke-width="1" stroke-linecap="butt" stroke-dasharray=""></path><path d="M566,331c-3.48978,-3.51062 -3.49796,-10.50354 0,-14c3.49796,-3.49646 10.50204,-3.49646 14,0c3.49796,3.49646 3.48978,10.48938 0,14c-3.48978,3.51062 -10.51022,3.51062 -14,0z" fill="#1c5319" stroke="none" stroke-width="1" stroke-linecap="butt" stroke-dasharray=""></path><path d="M646,331c-3.48978,-3.51062 -3.49796,-10.50354 0,-14c3.49796,-3.49646 10.50204,-3.49646 14,0c3.49796,3.49646 3.48978,10.48938 0,14c-3.48978,3.51062 -10.51022,3.51062 -14,0z" fill="#1c5319" stroke="none" stroke-width="1" stroke-linecap="butt" stroke-dasharray=""></path><path d="M726,331c-3.48978,-3.51062 -3.49796,-10.50354 0,-14c3.49796,-3.49646 10.50204,-3.49646 14,0c3.49796,3.49646 3.48978,10.48938 0,14c-3.48978,3.51062 -10.51022,3.51062 -14,0z" fill="#1c5319" stroke="none" stroke-width="1" stroke-linecap="butt" stroke-dasharray=""></path><path d="M486,411c-3.48978,-3.51062 -3.49796,-10.50354 0,-14c3.49796,-3.49646 10.50204,-3.49646 14,0c3.49796,3.49646 3.48978,10.48938 0,14c-3.48978,3.51062 -10.51022,3.51062 -14,0z" fill="#1c5319" stroke="none" stroke-width="1" stroke-linecap="butt" stroke-dasharray=""></path><path d="M566,411c-3.48978,-3.51062 -3.49796,-10.50354 0,-14c3.49796,-3.49646 10.50204,-3.49646 14,0c3.49796,3.49646 3.48978,10.48938 0,14c-3.48978,3.51062 -10.51022,3.51062 -14,0z" fill="#1c5319" stroke="none" stroke-width="1" stroke-linecap="butt" stroke-dasharray=""></path><path d="M646,411c-3.48978,-3.51062 -3.49796,-10.50354 0,-14c3.49796,-3.49646 10.50204,-3.49646 14,0c3.49796,3.49646 3.48978,10.48938 0,14c-3.48978,3.51062 -10.51022,3.51062 -14,0z" fill="#1c5319" stroke="none" stroke-width="1" stroke-linecap="butt" stroke-dasharray=""></path><text x="573" y="518" fill="#1c5319" stroke="none" stroke-width="1" stroke-linecap="butt" stroke-dasharray="" font-family="Mentalista Grotesque" font-weight="normal" font-size="85" text-anchor="middle">mentalista</text></g></svg>