<svg version="1.1" xmlns="http://www.w3.org/2000/svg" xmlns:xlink="http://www.w3.org/1999/xlink" width="1146" height="668" viewBox="0,0,1146,668"><defs><linearGradient x1="613" y1="284" x2="533" y2="204" gradientUnits="userSpaceOnUse" id="color-1"><stop offset="0" stop-color="#f74b51"></stop><stop offset="1" stop-color="#c0fdbc"></stop></linearGradient><linearGradient x1="533" y1="444" x2="453" y2="124" gradientUnits="userSpaceOnUse" id="color-2"><stop offset="0" stop-color="#f74b51"></stop><stop offset="1" stop-color="#c0fdbc"></stop></linearGradient><linearGradient x1="453" y1="204" x2="533" y2="204" gradientUnits="userSpaceOnUse" id="color-3"><stop offset="0" stop-color="#f74b51"></stop><stop offset="1" stop-color="#c0fdbc"></stop></linearGradient><linearGradient x1="373" y1="204" x2="773" y2="204" gradientUnits="userSpaceOnUse" id="color-4"><stop offset="0" stop-color="#f74b51"></stop><stop offset="1" stop-color="#c0fdbc"></stop></linearGradient><linearGradient x1="533" y1="124" x2="373" y2="444" gradientUnits="userSpaceOnUse" id="color-5"><stop offset="0" stop-color="#f74b51"></stop><stop offset="1" stop-color="#c0fdbc"></stop></linearGradient><linearGradient x1="693" y1="444" x2="453" y2="284" gradientUnits="userSpaceOnUse" id="color-6"><stop offset="0" stop-color="#f74b51"></stop><stop offset="1" stop-color="#c0fdbc"></stop></linearGradient><linearGradient x1="453" y1="204" x2="373" y2="444" gradientUnits="userSpaceOnUse" id="color-7"><stop offset="0" stop-color="#f74b51"></stop><stop offset="1" stop-color="#c0fdbc"></stop></linearGradient><linearGradient x1="773" y1="124" x2="693" y2="204" gradientUnits="userSpaceOnUse" id="color-8"><stop offset="0" stop-color="#f74b51"></stop><stop offset="1" stop-color="#c0fdbc"></stop></linearGradient><linearGradient x1="453" y1="204" x2="373" y2="444" gradientUnits="userSpaceOnUse" id="color-9"><stop offset="0" stop-color="#f74b51"></stop><stop offset="1" stop-color="#c0fdbc"></stop></linearGradient><linearGradient x1="693" y1="364" x2="693" y2="444" gradientUnits="userSpaceOnUse" id="color-10"><stop offset="0" stop-color="#f74b51"></stop><stop offset="1" stop-color="#c0fdbc"></stop></linearGradient><linearGradient x1="453" y1="124" x2="773" y2="444" gradientUnits="userSpaceOnUse" id="color-11"><stop offset="0" stop-color="#f74b51"></stop><stop offset="1" stop-color="#c0fdbc"></stop></linearGradient><style type="text/css">@import url("https://assets.mentalista.fr/font/?family=mentalista-grotesque");</style></defs><g fill="none" fill-rule="nonzero" stroke="none" stroke-width="none" stroke-linecap="none" stroke-linejoin="miter" stroke-miterlimit="10" stroke-dasharray="none" stroke-dashoffset="0" font-family="none" font-weight="none" font-size="none" text-anchor="none" style="mix-blend-mode: normal"><path d="M613,284c-80,0 -80,0 -80,-80" fill="none" stroke="url(#color-1)" stroke-width="23" stroke-linecap="square" stroke-dasharray=",1000"></path><path d="M533,444c0,-320 0,-320 -80,-320" fill="none" stroke="url(#color-2)" stroke-width="23" stroke-linecap="square" stroke-dasharray=",1000"></path><path d="M453,204h80" fill="none" stroke="url(#color-3)" stroke-width="23" stroke-linecap="square" stroke-dasharray=",1000"></path><path d="M373,204h400" fill="none" stroke="url(#color-4)" stroke-width="23" stroke-linecap="square" stroke-dasharray=",1000"></path><path d="M533,124c0,320 0,320 -160,320" fill="none" stroke="url(#color-5)" stroke-width="23" stroke-linecap="square" stroke-dasharray=",1000"></path><path d="M693,444c0,-160 0,-160 -240,-160" fill="none" stroke="url(#color-6)" stroke-width="23" stroke-linecap="square" stroke-dasharray=",1000"></path><path d="M453,204c0,240 0,240 -80,240" fill="none" stroke="url(#color-7)" stroke-width="23" stroke-linecap="square" stroke-dasharray=",1000"></path><path d="M773,124c-80,0 -80,0 -80,80" fill="none" stroke="url(#color-8)" stroke-width="23" stroke-linecap="square" stroke-dasharray=",1000"></path><path d="M453,204c-80,0 -80,0 -80,240" fill="none" stroke="url(#color-9)" stroke-width="23" stroke-linecap="square" stroke-dasharray=",1000"></path><path d="M693,364v80" fill="none" stroke="url(#color-10)" stroke-width="23" stroke-linecap="square" stroke-dasharray=",1000"></path><path d="M453,124c0,320 0,320 320,320" fill="none" stroke="url(#color-11)" stroke-width="23" stroke-linecap="square" stroke-dasharray=",1000"></path><path d="M361.5,135.5v-23h23v23z" fill="#c0fdbc" stroke="none" stroke-width="1" stroke-linecap="butt" stroke-dasharray=""></path><path d="M441.5,135.5v-23h23v23z" fill="#c0fdbc" stroke="none" stroke-width="1" stroke-linecap="butt" stroke-dasharray=""></path><path d="M521.5,135.5v-23h23v23z" fill="#c0fdbc" stroke="none" stroke-width="1" stroke-linecap="butt" stroke-dasharray=""></path><path d="M601.5,135.5v-23h23v23z" fill="#c0fdbc" stroke="none" stroke-width="1" stroke-linecap="butt" stroke-dasharray=""></path><path d="M681.5,135.5v-23h23v23z" fill="#c0fdbc" stroke="none" stroke-width="1" stroke-linecap="butt" stroke-dasharray=""></path><path d="M761.5,135.5v-23h23v23z" fill="#c0fdbc" stroke="none" stroke-width="1" stroke-linecap="butt" stroke-dasharray=""></path><path d="M361.5,215.5v-23h23v23z" fill="#c0fdbc" stroke="none" stroke-width="1" stroke-linecap="butt" stroke-dasharray=""></path><path d="M441.5,215.5v-23h23v23z" fill="#c0fdbc" stroke="none" stroke-width="1" stroke-linecap="butt" stroke-dasharray=""></path><path d="M521.5,215.5v-23h23v23z" fill="#c0fdbc" stroke="none" stroke-width="1" stroke-linecap="butt" stroke-dasharray=""></path><path d="M601.5,215.5v-23h23v23z" fill="#c0fdbc" stroke="none" stroke-width="1" stroke-linecap="butt" stroke-dasharray=""></path><path d="M681.5,215.5v-23h23v23z" fill="#c0fdbc" stroke="none" stroke-width="1" stroke-linecap="butt" stroke-dasharray=""></path><path d="M761.5,215.5v-23h23v23z" fill="#c0fdbc" stroke="none" stroke-width="1" stroke-linecap="butt" stroke-dasharray=""></path><path d="M361.5,295.5v-23h23v23z" fill="#c0fdbc" stroke="none" stroke-width="1" stroke-linecap="butt" stroke-dasharray=""></path><path d="M441.5,295.5v-23h23v23z" fill="#c0fdbc" stroke="none" stroke-width="1" stroke-linecap="butt" stroke-dasharray=""></path><path d="M521.5,295.5v-23h23v23z" fill="#c0fdbc" stroke="none" stroke-width="1" stroke-linecap="butt" stroke-dasharray=""></path><path d="M601.5,295.5v-23h23v23z" fill="#c0fdbc" stroke="none" stroke-width="1" stroke-linecap="butt" stroke-dasharray=""></path><path d="M681.5,295.5v-23h23v23z" fill="#c0fdbc" stroke="none" stroke-width="1" stroke-linecap="butt" stroke-dasharray=""></path><path d="M761.5,295.5v-23h23v23z" fill="#c0fdbc" stroke="none" stroke-width="1" stroke-linecap="butt" stroke-dasharray=""></path><path d="M361.5,375.5v-23h23v23z" fill="#c0fdbc" stroke="none" stroke-width="1" stroke-linecap="butt" stroke-dasharray=""></path><path d="M441.5,375.5v-23h23v23z" fill="#c0fdbc" stroke="none" stroke-width="1" stroke-linecap="butt" stroke-dasharray=""></path><path d="M521.5,375.5v-23h23v23z" fill="#c0fdbc" stroke="none" stroke-width="1" stroke-linecap="butt" stroke-dasharray=""></path><path d="M601.5,375.5v-23h23v23z" fill="#c0fdbc" stroke="none" stroke-width="1" stroke-linecap="butt" stroke-dasharray=""></path><path d="M681.5,375.5v-23h23v23z" fill="#c0fdbc" stroke="none" stroke-width="1" stroke-linecap="butt" stroke-dasharray=""></path><path d="M761.5,375.5v-23h23v23z" fill="#c0fdbc" stroke="none" stroke-width="1" stroke-linecap="butt" stroke-dasharray=""></path><path d="M361.5,455.5v-23h23v23z" fill="#c0fdbc" stroke="none" stroke-width="1" stroke-linecap="butt" stroke-dasharray=""></path><path d="M441.5,455.5v-23h23v23z" fill="#c0fdbc" stroke="none" stroke-width="1" stroke-linecap="butt" stroke-dasharray=""></path><path d="M521.5,455.5v-23h23v23z" fill="#c0fdbc" stroke="none" stroke-width="1" stroke-linecap="butt" stroke-dasharray=""></path><path d="M601.5,455.5v-23h23v23z" fill="#c0fdbc" stroke="none" stroke-width="1" stroke-linecap="butt" stroke-dasharray=""></path><path d="M681.5,455.5v-23h23v23z" fill="#c0fdbc" stroke="none" stroke-width="1" stroke-linecap="butt" stroke-dasharray=""></path><path d="M761.5,455.5v-23h23v23z" fill="#c0fdbc" stroke="none" stroke-width="1" stroke-linecap="butt" stroke-dasharray=""></path></g></svg>