<svg x="0" y="0" width="1440" height="745" version="1.1" xmlns="http://www.w3.org/2000/svg" xmlns:xlink="http://www.w3.org/1999/xlink"><defs><linearGradient x1="720" y1="202.5" x2="800" y2="362.5" gradientUnits="userSpaceOnUse" id="color-1"><stop offset="0" stop-color="#0fff00"/><stop offset="1" stop-color="#a400ff"/></linearGradient><linearGradient x1="640" y1="282.5" x2="560" y2="362.5" gradientUnits="userSpaceOnUse" id="color-2"><stop offset="0" stop-color="#0fff00"/><stop offset="1" stop-color="#a400ff"/></linearGradient><linearGradient x1="800" y1="362.5" x2="800" y2="202.5" gradientUnits="userSpaceOnUse" id="color-3"><stop offset="0" stop-color="#0fff00"/><stop offset="1" stop-color="#a400ff"/></linearGradient><linearGradient x1="640" y1="362.5" x2="800" y2="282.5" gradientUnits="userSpaceOnUse" id="color-4"><stop offset="0" stop-color="#0fff00"/><stop offset="1" stop-color="#a400ff"/></linearGradient><linearGradient x1="800" y1="442.5" x2="720" y2="202.5" gradientUnits="userSpaceOnUse" id="color-5"><stop offset="0" stop-color="#0fff00"/><stop offset="1" stop-color="#a400ff"/></linearGradient><linearGradient x1="800" y1="442.5" x2="880" y2="282.5" gradientUnits="userSpaceOnUse" id="color-6"><stop offset="0" stop-color="#0fff00"/><stop offset="1" stop-color="#a400ff"/></linearGradient><linearGradient x1="640" y1="442.5" x2="800" y2="202.5" gradientUnits="userSpaceOnUse" id="color-7"><stop offset="0" stop-color="#0fff00"/><stop offset="1" stop-color="#a400ff"/></linearGradient><linearGradient x1="880" y1="362.5" x2="720" y2="362.5" gradientUnits="userSpaceOnUse" id="color-8"><stop offset="0" stop-color="#0fff00"/><stop offset="1" stop-color="#a400ff"/></linearGradient><linearGradient x1="880" y1="362.5" x2="720" y2="202.5" gradientUnits="userSpaceOnUse" id="color-9"><stop offset="0" stop-color="#0fff00"/><stop offset="1" stop-color="#a400ff"/></linearGradient><linearGradient x1="640" y1="282.5" x2="560" y2="362.5" gradientUnits="userSpaceOnUse" id="color-10"><stop offset="0" stop-color="#0fff00"/><stop offset="1" stop-color="#a400ff"/></linearGradient><linearGradient x1="560" y1="362.5" x2="720" y2="442.5" gradientUnits="userSpaceOnUse" id="color-11"><stop offset="0" stop-color="#0fff00"/><stop offset="1" stop-color="#a400ff"/></linearGradient><linearGradient x1="800" y1="282.5" x2="720" y2="202.5" gradientUnits="userSpaceOnUse" id="color-12"><stop offset="0" stop-color="#0fff00"/><stop offset="1" stop-color="#a400ff"/></linearGradient><linearGradient x1="560" y1="282.5" x2="800" y2="202.5" gradientUnits="userSpaceOnUse" id="color-13"><stop offset="0" stop-color="#0fff00"/><stop offset="1" stop-color="#a400ff"/></linearGradient><linearGradient x1="880" y1="362.5" x2="640" y2="202.5" gradientUnits="userSpaceOnUse" id="color-14"><stop offset="0" stop-color="#0fff00"/><stop offset="1" stop-color="#a400ff"/></linearGradient><linearGradient x1="720" y1="442.5" x2="560" y2="282.5" gradientUnits="userSpaceOnUse" id="color-15"><stop offset="0" stop-color="#0fff00"/><stop offset="1" stop-color="#a400ff"/></linearGradient><linearGradient x1="800" y1="282.5" x2="720" y2="442.5" gradientUnits="userSpaceOnUse" id="color-16"><stop offset="0" stop-color="#0fff00"/><stop offset="1" stop-color="#a400ff"/></linearGradient><linearGradient x1="720" y1="202.5" x2="640" y2="282.5" gradientUnits="userSpaceOnUse" id="color-17"><stop offset="0" stop-color="#0fff00"/><stop offset="1" stop-color="#a400ff"/></linearGradient><linearGradient x1="800" y1="442.5" x2="880" y2="362.5" gradientUnits="userSpaceOnUse" id="color-18"><stop offset="0" stop-color="#0fff00"/><stop offset="1" stop-color="#a400ff"/></linearGradient><linearGradient x1="560" y1="282.5" x2="640" y2="442.5" gradientUnits="userSpaceOnUse" id="color-19"><stop offset="0" stop-color="#0fff00"/><stop offset="1" stop-color="#a400ff"/></linearGradient><linearGradient x1="640" y1="202.5" x2="800" y2="362.5" gradientUnits="userSpaceOnUse" id="color-20"><stop offset="0" stop-color="#0fff00"/><stop offset="1" stop-color="#a400ff"/></linearGradient><linearGradient x1="800" y1="362.5" x2="640" y2="202.5" gradientUnits="userSpaceOnUse" id="color-21"><stop offset="0" stop-color="#0fff00"/><stop offset="1" stop-color="#a400ff"/></linearGradient><linearGradient x1="880" y1="282.5" x2="800" y2="202.5" gradientUnits="userSpaceOnUse" id="color-22"><stop offset="0" stop-color="#0fff00"/><stop offset="1" stop-color="#a400ff"/></linearGradient><linearGradient x1="640" y1="362.5" x2="800" y2="202.5" gradientUnits="userSpaceOnUse" id="color-23"><stop offset="0" stop-color="#0fff00"/><stop offset="1" stop-color="#a400ff"/></linearGradient><linearGradient x1="560" y1="362.5" x2="640" y2="282.5" gradientUnits="userSpaceOnUse" id="color-24"><stop offset="0" stop-color="#0fff00"/><stop offset="1" stop-color="#a400ff"/></linearGradient><linearGradient x1="800" y1="442.5" x2="880" y2="362.5" gradientUnits="userSpaceOnUse" id="color-25"><stop offset="0" stop-color="#0fff00"/><stop offset="1" stop-color="#a400ff"/></linearGradient><linearGradient x1="720" y1="282.5" x2="720" y2="442.5" gradientUnits="userSpaceOnUse" id="color-26"><stop offset="0" stop-color="#0fff00"/><stop offset="1" stop-color="#a400ff"/></linearGradient><linearGradient x1="720" y1="202.5" x2="560" y2="362.5" gradientUnits="userSpaceOnUse" id="color-27"><stop offset="0" stop-color="#0fff00"/><stop offset="1" stop-color="#a400ff"/></linearGradient><linearGradient x1="880" y1="282.5" x2="880" y2="282.5" gradientUnits="userSpaceOnUse" id="color-28"><stop offset="0" stop-color="#0fff00"/><stop offset="1" stop-color="#a400ff"/></linearGradient><linearGradient x1="720" y1="282.5" x2="560" y2="282.5" gradientUnits="userSpaceOnUse" id="color-29"><stop offset="0" stop-color="#0fff00"/><stop offset="1" stop-color="#a400ff"/></linearGradient><linearGradient x1="880" y1="362.5" x2="800" y2="442.5" gradientUnits="userSpaceOnUse" id="color-30"><stop offset="0" stop-color="#0fff00"/><stop offset="1" stop-color="#a400ff"/></linearGradient><linearGradient x1="720" y1="282.5" x2="800" y2="442.5" gradientUnits="userSpaceOnUse" id="color-31"><stop offset="0" stop-color="#0fff00"/><stop offset="1" stop-color="#a400ff"/></linearGradient><linearGradient x1="880" y1="362.5" x2="720" y2="202.5" gradientUnits="userSpaceOnUse" id="color-32"><stop offset="0" stop-color="#0fff00"/><stop offset="1" stop-color="#a400ff"/></linearGradient><linearGradient x1="560" y1="282.5" x2="800" y2="202.5" gradientUnits="userSpaceOnUse" id="color-33"><stop offset="0" stop-color="#0fff00"/><stop offset="1" stop-color="#a400ff"/></linearGradient><linearGradient x1="640" y1="442.5" x2="800" y2="282.5" gradientUnits="userSpaceOnUse" id="color-34"><stop offset="0" stop-color="#0fff00"/><stop offset="1" stop-color="#a400ff"/></linearGradient><linearGradient x1="640" y1="362.5" x2="640" y2="202.5" gradientUnits="userSpaceOnUse" id="color-35"><stop offset="0" stop-color="#0fff00"/><stop offset="1" stop-color="#a400ff"/></linearGradient><linearGradient x1="800" y1="202.5" x2="640" y2="202.5" gradientUnits="userSpaceOnUse" id="color-36"><stop offset="0" stop-color="#0fff00"/><stop offset="1" stop-color="#a400ff"/></linearGradient><linearGradient x1="800" y1="442.5" x2="640" y2="202.5" gradientUnits="userSpaceOnUse" id="color-37"><stop offset="0" stop-color="#0fff00"/><stop offset="1" stop-color="#a400ff"/></linearGradient><linearGradient x1="640" y1="202.5" x2="720" y2="442.5" gradientUnits="userSpaceOnUse" id="color-38"><stop offset="0" stop-color="#0fff00"/><stop offset="1" stop-color="#a400ff"/></linearGradient><linearGradient x1="720" y1="442.5" x2="640" y2="202.5" gradientUnits="userSpaceOnUse" id="color-39"><stop offset="0" stop-color="#0fff00"/><stop offset="1" stop-color="#a400ff"/></linearGradient><linearGradient x1="720" y1="442.5" x2="640" y2="282.5" gradientUnits="userSpaceOnUse" id="color-40"><stop offset="0" stop-color="#0fff00"/><stop offset="1" stop-color="#a400ff"/></linearGradient><linearGradient x1="720" y1="202.5" x2="800" y2="202.5" gradientUnits="userSpaceOnUse" id="color-41"><stop offset="0" stop-color="#0fff00"/><stop offset="1" stop-color="#a400ff"/></linearGradient><linearGradient x1="720" y1="442.5" x2="880" y2="282.5" gradientUnits="userSpaceOnUse" id="color-42"><stop offset="0" stop-color="#0fff00"/><stop offset="1" stop-color="#a400ff"/></linearGradient><linearGradient x1="720" y1="362.5" x2="800" y2="202.5" gradientUnits="userSpaceOnUse" id="color-43"><stop offset="0" stop-color="#0fff00"/><stop offset="1" stop-color="#a400ff"/></linearGradient><linearGradient x1="560" y1="362.5" x2="720" y2="362.5" gradientUnits="userSpaceOnUse" id="color-44"><stop offset="0" stop-color="#0fff00"/><stop offset="1" stop-color="#a400ff"/></linearGradient><linearGradient x1="640" y1="442.5" x2="640" y2="282.5" gradientUnits="userSpaceOnUse" id="color-45"><stop offset="0" stop-color="#0fff00"/><stop offset="1" stop-color="#a400ff"/></linearGradient><linearGradient x1="720" y1="362.5" x2="640" y2="202.5" gradientUnits="userSpaceOnUse" id="color-46"><stop offset="0" stop-color="#0fff00"/><stop offset="1" stop-color="#a400ff"/></linearGradient><linearGradient x1="720" y1="442.5" x2="800" y2="442.5" gradientUnits="userSpaceOnUse" id="color-47"><stop offset="0" stop-color="#0fff00"/><stop offset="1" stop-color="#a400ff"/></linearGradient><linearGradient x1="560" y1="282.5" x2="800" y2="202.5" gradientUnits="userSpaceOnUse" id="color-48"><stop offset="0" stop-color="#0fff00"/><stop offset="1" stop-color="#a400ff"/></linearGradient><linearGradient x1="640" y1="202.5" x2="640" y2="282.5" gradientUnits="userSpaceOnUse" id="color-49"><stop offset="0" stop-color="#0fff00"/><stop offset="1" stop-color="#a400ff"/></linearGradient><linearGradient x1="560" y1="362.5" x2="880" y2="282.5" gradientUnits="userSpaceOnUse" id="color-50"><stop offset="0" stop-color="#0fff00"/><stop offset="1" stop-color="#a400ff"/></linearGradient><linearGradient x1="880" y1="282.5" x2="640" y2="282.5" gradientUnits="userSpaceOnUse" id="color-51"><stop offset="0" stop-color="#0fff00"/><stop offset="1" stop-color="#a400ff"/></linearGradient><linearGradient x1="720" y1="442.5" x2="560" y2="282.5" gradientUnits="userSpaceOnUse" id="color-52"><stop offset="0" stop-color="#0fff00"/><stop offset="1" stop-color="#a400ff"/></linearGradient><linearGradient x1="640" y1="282.5" x2="640" y2="202.5" gradientUnits="userSpaceOnUse" id="color-53"><stop offset="0" stop-color="#0fff00"/><stop offset="1" stop-color="#a400ff"/></linearGradient><linearGradient x1="800" y1="362.5" x2="720" y2="282.5" gradientUnits="userSpaceOnUse" id="color-54"><stop offset="0" stop-color="#0fff00"/><stop offset="1" stop-color="#a400ff"/></linearGradient></defs><g fill="none" stroke="none" stroke-width="none" stroke-linecap="none" stroke-linejoin="miter" stroke-miterlimit="10" stroke-dasharray="none" stroke-dashoffset="0" font-family="none" font-weight="normal" font-size="none" text-anchor="none" mix-blend-mode="normal"><path d="M720,202.5c0,160 0,160 80,160" stroke="url(#color-1)" stroke-width="2" stroke-linecap="square" stroke-dasharray=",1000" font-family="sans-serif" font-size="12" text-anchor="start"/><path d="M640,282.5c-80,0 -80,0 -80,80" stroke="url(#color-2)" stroke-width="2" stroke-linecap="square" stroke-dasharray=",1000" font-family="sans-serif" font-size="12" text-anchor="start"/><path d="M800,362.5l0,-160" stroke="url(#color-3)" stroke-width="2" stroke-linecap="square" stroke-dasharray=",1000" font-family="sans-serif" font-size="12" text-anchor="start"/><path d="M640,362.5c0,-80 0,-80 160,-80" stroke="url(#color-4)" stroke-width="2" stroke-linecap="square" stroke-dasharray=",1000" font-family="sans-serif" font-size="12" text-anchor="start"/><path d="M800,442.5c-80,0 -80,0 -80,-240" stroke="url(#color-5)" stroke-width="2" stroke-linecap="square" stroke-dasharray=",1000" font-family="sans-serif" font-size="12" text-anchor="start"/><path d="M800,442.5c80,0 80,0 80,-160" stroke="url(#color-6)" stroke-width="2" stroke-linecap="square" stroke-dasharray=",1000" font-family="sans-serif" font-size="12" text-anchor="start"/><path d="M640,442.5c0,-240 0,-240 160,-240" stroke="url(#color-7)" stroke-width="2" stroke-linecap="square" stroke-dasharray=",1000" font-family="sans-serif" font-size="12" text-anchor="start"/><path d="M880,362.5l-160,0" stroke="url(#color-8)" stroke-width="2" stroke-linecap="square" stroke-dasharray=",1000" font-family="sans-serif" font-size="12" text-anchor="start"/><path d="M880,362.5c0,-160 0,-160 -160,-160" stroke="url(#color-9)" stroke-width="2" stroke-linecap="square" stroke-dasharray=",1000" font-family="sans-serif" font-size="12" text-anchor="start"/><path d="M640,282.5c0,80 0,80 -80,80" stroke="url(#color-10)" stroke-width="2" stroke-linecap="square" stroke-dasharray=",1000" font-family="sans-serif" font-size="12" text-anchor="start"/><path d="M560,362.5c160,0 160,0 160,80" stroke="url(#color-11)" stroke-width="2" stroke-linecap="square" stroke-dasharray=",1000" font-family="sans-serif" font-size="12" text-anchor="start"/><path d="M800,282.5c-80,0 -80,0 -80,-80" stroke="url(#color-12)" stroke-width="2" stroke-linecap="square" stroke-dasharray=",1000" font-family="sans-serif" font-size="12" text-anchor="start"/><path d="M560,282.5c240,0 240,0 240,-80" stroke="url(#color-13)" stroke-width="2" stroke-linecap="square" stroke-dasharray=",1000" font-family="sans-serif" font-size="12" text-anchor="start"/><path d="M880,362.5c0,-160 0,-160 -240,-160" stroke="url(#color-14)" stroke-width="2" stroke-linecap="square" stroke-dasharray=",1000" font-family="sans-serif" font-size="12" text-anchor="start"/><path d="M720,442.5c0,-160 0,-160 -160,-160" stroke="url(#color-15)" stroke-width="2" stroke-linecap="square" stroke-dasharray=",1000" font-family="sans-serif" font-size="12" text-anchor="start"/><path d="M800,282.5c-80,0 -80,0 -80,160" stroke="url(#color-16)" stroke-width="2" stroke-linecap="square" stroke-dasharray=",1000" font-family="sans-serif" font-size="12" text-anchor="start"/><path d="M720,202.5c0,80 0,80 -80,80" stroke="url(#color-17)" stroke-width="2" stroke-linecap="square" stroke-dasharray=",1000" font-family="sans-serif" font-size="12" text-anchor="start"/><path d="M800,442.5c0,-80 0,-80 80,-80" stroke="url(#color-18)" stroke-width="2" stroke-linecap="square" stroke-dasharray=",1000" font-family="sans-serif" font-size="12" text-anchor="start"/><path d="M560,282.5c0,160 0,160 80,160" stroke="url(#color-19)" stroke-width="2" stroke-linecap="square" stroke-dasharray=",1000" font-family="sans-serif" font-size="12" text-anchor="start"/><path d="M640,202.5c0,160 0,160 160,160" stroke="url(#color-20)" stroke-width="2" stroke-linecap="square" stroke-dasharray=",1000" font-family="sans-serif" font-size="12" text-anchor="start"/><path d="M800,362.5c-160,0 -160,0 -160,-160" stroke="url(#color-21)" stroke-width="2" stroke-linecap="square" stroke-dasharray=",1000" font-family="sans-serif" font-size="12" text-anchor="start"/><path d="M880,282.5c0,-80 0,-80 -80,-80" stroke="url(#color-22)" stroke-width="2" stroke-linecap="square" stroke-dasharray=",1000" font-family="sans-serif" font-size="12" text-anchor="start"/><path d="M640,362.5c160,0 160,0 160,-160" stroke="url(#color-23)" stroke-width="2" stroke-linecap="square" stroke-dasharray=",1000" font-family="sans-serif" font-size="12" text-anchor="start"/><path d="M560,362.5c80,0 80,0 80,-80" stroke="url(#color-24)" stroke-width="2" stroke-linecap="square" stroke-dasharray=",1000" font-family="sans-serif" font-size="12" text-anchor="start"/><path d="M800,442.5c0,-80 0,-80 80,-80" stroke="url(#color-25)" stroke-width="2" stroke-linecap="square" stroke-dasharray=",1000" font-family="sans-serif" font-size="12" text-anchor="start"/><path d="M720,282.5l0,160" stroke="url(#color-26)" stroke-width="2" stroke-linecap="square" stroke-dasharray=",1000" font-family="sans-serif" font-size="12" text-anchor="start"/><path d="M720,202.5c-160,0 -160,0 -160,160" stroke="url(#color-27)" stroke-width="2" stroke-linecap="square" stroke-dasharray=",1000" font-family="sans-serif" font-size="12" text-anchor="start"/><path d="M880,282.5l0,0" stroke="url(#color-28)" stroke-width="2" stroke-linecap="square" stroke-dasharray=",1000" font-family="sans-serif" font-size="12" text-anchor="start"/><path d="M720,282.5l-160,0" stroke="url(#color-29)" stroke-width="2" stroke-linecap="square" stroke-dasharray=",1000" font-family="sans-serif" font-size="12" text-anchor="start"/><path d="M880,362.5c0,80 0,80 -80,80" stroke="url(#color-30)" stroke-width="2" stroke-linecap="square" stroke-dasharray=",1000" font-family="sans-serif" font-size="12" text-anchor="start"/><path d="M720,282.5c80,0 80,0 80,160" stroke="url(#color-31)" stroke-width="2" stroke-linecap="square" stroke-dasharray=",1000" font-family="sans-serif" font-size="12" text-anchor="start"/><path d="M880,362.5c-160,0 -160,0 -160,-160" stroke="url(#color-32)" stroke-width="2" stroke-linecap="square" stroke-dasharray=",1000" font-family="sans-serif" font-size="12" text-anchor="start"/><path d="M560,282.5c240,0 240,0 240,-80" stroke="url(#color-33)" stroke-width="2" stroke-linecap="square" stroke-dasharray=",1000" font-family="sans-serif" font-size="12" text-anchor="start"/><path d="M640,442.5c160,0 160,0 160,-160" stroke="url(#color-34)" stroke-width="2" stroke-linecap="square" stroke-dasharray=",1000" font-family="sans-serif" font-size="12" text-anchor="start"/><path d="M640,362.5l0,-160" stroke="url(#color-35)" stroke-width="2" stroke-linecap="square" stroke-dasharray=",1000" font-family="sans-serif" font-size="12" text-anchor="start"/><path d="M800,202.5l-160,0" stroke="url(#color-36)" stroke-width="2" stroke-linecap="square" stroke-dasharray=",1000" font-family="sans-serif" font-size="12" text-anchor="start"/><path d="M800,442.5c0,-240 0,-240 -160,-240" stroke="url(#color-37)" stroke-width="2" stroke-linecap="square" stroke-dasharray=",1000" font-family="sans-serif" font-size="12" text-anchor="start"/><path d="M640,202.5c0,240 0,240 80,240" stroke="url(#color-38)" stroke-width="2" stroke-linecap="square" stroke-dasharray=",1000" font-family="sans-serif" font-size="12" text-anchor="start"/><path d="M720,442.5c-80,0 -80,0 -80,-240" stroke="url(#color-39)" stroke-width="2" stroke-linecap="square" stroke-dasharray=",1000" font-family="sans-serif" font-size="12" text-anchor="start"/><path d="M720,442.5c-80,0 -80,0 -80,-160" stroke="url(#color-40)" stroke-width="2" stroke-linecap="square" stroke-dasharray=",1000" font-family="sans-serif" font-size="12" text-anchor="start"/><path d="M720,202.5l80,0" stroke="url(#color-41)" stroke-width="2" stroke-linecap="square" stroke-dasharray=",1000" font-family="sans-serif" font-size="12" text-anchor="start"/><path d="M720,442.5c160,0 160,0 160,-160" stroke="url(#color-42)" stroke-width="2" stroke-linecap="square" stroke-dasharray=",1000" font-family="sans-serif" font-size="12" text-anchor="start"/><path d="M720,362.5c0,-160 0,-160 80,-160" stroke="url(#color-43)" stroke-width="2" stroke-linecap="square" stroke-dasharray=",1000" font-family="sans-serif" font-size="12" text-anchor="start"/><path d="M560,362.5l160,0" stroke="url(#color-44)" stroke-width="2" stroke-linecap="square" stroke-dasharray=",1000" font-family="sans-serif" font-size="12" text-anchor="start"/><path d="M640,442.5l0,-160" stroke="url(#color-45)" stroke-width="2" stroke-linecap="square" stroke-dasharray=",1000" font-family="sans-serif" font-size="12" text-anchor="start"/><path d="M720,362.5c0,-160 0,-160 -80,-160" stroke="url(#color-46)" stroke-width="2" stroke-linecap="square" stroke-dasharray=",1000" font-family="sans-serif" font-size="12" text-anchor="start"/><path d="M720,442.5l80,0" stroke="url(#color-47)" stroke-width="2" stroke-linecap="square" stroke-dasharray=",1000" font-family="sans-serif" font-size="12" text-anchor="start"/><path d="M560,282.5c0,-80 0,-80 240,-80" stroke="url(#color-48)" stroke-width="2" stroke-linecap="square" stroke-dasharray=",1000" font-family="sans-serif" font-size="12" text-anchor="start"/><path d="M640,202.5l0,80" stroke="url(#color-49)" stroke-width="2" stroke-linecap="square" stroke-dasharray=",1000" font-family="sans-serif" font-size="12" text-anchor="start"/><path d="M560,362.5c320,0 320,0 320,-80" stroke="url(#color-50)" stroke-width="2" stroke-linecap="square" stroke-dasharray=",1000" font-family="sans-serif" font-size="12" text-anchor="start"/><path d="M880,282.5l-240,0" stroke="url(#color-51)" stroke-width="2" stroke-linecap="square" stroke-dasharray=",1000" font-family="sans-serif" font-size="12" text-anchor="start"/><path d="M720,442.5c0,-160 0,-160 -160,-160" stroke="url(#color-52)" stroke-width="2" stroke-linecap="square" stroke-dasharray=",1000" font-family="sans-serif" font-size="12" text-anchor="start"/><path d="M640,282.5l0,-80" stroke="url(#color-53)" stroke-width="2" stroke-linecap="square" stroke-dasharray=",1000" font-family="sans-serif" font-size="12" text-anchor="start"/><path d="M800,362.5c-80,0 -80,0 -80,-80" stroke="url(#color-54)" stroke-width="2" stroke-linecap="square" stroke-dasharray=",1000" font-family="sans-serif" font-size="12" text-anchor="start"/><path d="M789,453.5l0,-22l22,0l0,22z" fill="#a400ff" stroke-width="1" stroke-linecap="butt" stroke-dasharray="" font-family="sans-serif" font-size="12" text-anchor="start"/><path d="M709,453.5l0,-22l22,0l0,22z" fill="#a400ff" stroke-width="1" stroke-linecap="butt" stroke-dasharray="" font-family="sans-serif" font-size="12" text-anchor="start"/><path d="M629,453.5l0,-22l22,0l0,22z" fill="#a400ff" stroke-width="1" stroke-linecap="butt" stroke-dasharray="" font-family="sans-serif" font-size="12" text-anchor="start"/><path d="M869,373.5l0,-22l22,0l0,22z" fill="#a400ff" stroke-width="1" stroke-linecap="butt" stroke-dasharray="" font-family="sans-serif" font-size="12" text-anchor="start"/><path d="M789,373.5l0,-22l22,0l0,22z" fill="#a400ff" stroke-width="1" stroke-linecap="butt" stroke-dasharray="" font-family="sans-serif" font-size="12" text-anchor="start"/><path d="M709,373.5l0,-22l22,0l0,22z" fill="#a400ff" stroke-width="1" stroke-linecap="butt" stroke-dasharray="" font-family="sans-serif" font-size="12" text-anchor="start"/><path d="M629,373.5l0,-22l22,0l0,22z" fill="#a400ff" stroke-width="1" stroke-linecap="butt" stroke-dasharray="" font-family="sans-serif" font-size="12" text-anchor="start"/><path d="M549,373.5l0,-22l22,0l0,22z" fill="#a400ff" stroke-width="1" stroke-linecap="butt" stroke-dasharray="" font-family="sans-serif" font-size="12" text-anchor="start"/><path d="M869,293.5l0,-22l22,0l0,22z" fill="#a400ff" stroke-width="1" stroke-linecap="butt" stroke-dasharray="" font-family="sans-serif" font-size="12" text-anchor="start"/><path d="M789,293.5l0,-22l22,0l0,22z" fill="#a400ff" stroke-width="1" stroke-linecap="butt" stroke-dasharray="" font-family="sans-serif" font-size="12" text-anchor="start"/><path d="M709,293.5l0,-22l22,0l0,22z" fill="#a400ff" stroke-width="1" stroke-linecap="butt" stroke-dasharray="" font-family="sans-serif" font-size="12" text-anchor="start"/><path d="M629,293.5l0,-22l22,0l0,22z" fill="#a400ff" stroke-width="1" stroke-linecap="butt" stroke-dasharray="" font-family="sans-serif" font-size="12" text-anchor="start"/><path d="M549,293.5l0,-22l22,0l0,22z" fill="#a400ff" stroke-width="1" stroke-linecap="butt" stroke-dasharray="" font-family="sans-serif" font-size="12" text-anchor="start"/><path d="M789,213.5l0,-22l22,0l0,22z" fill="#a400ff" stroke-width="1" stroke-linecap="butt" stroke-dasharray="" font-family="sans-serif" font-size="12" text-anchor="start"/><path d="M709,213.5l0,-22l22,0l0,22z" fill="#a400ff" stroke-width="1" stroke-linecap="butt" stroke-dasharray="" font-family="sans-serif" font-size="12" text-anchor="start"/><path d="M629,213.5l0,-22l22,0l0,22z" fill="#a400ff" stroke-width="1" stroke-linecap="butt" stroke-dasharray="" font-family="sans-serif" font-size="12" text-anchor="start"/><text x="720" y="556.5" fill="#a400ff" stroke-width="1" stroke-linecap="butt" stroke-dasharray="" font-family="Mentalista Grotesque" font-size="85" text-anchor="middle">mentalista</text></g></svg>