<svg x="0" y="0" width="1440" height="745" version="1.1" xmlns="http://www.w3.org/2000/svg" xmlns:xlink="http://www.w3.org/1999/xlink"><defs><linearGradient x1="640" y1="442.5" x2="800" y2="442.5" gradientUnits="userSpaceOnUse" id="color-1"><stop offset="0" stop-color="#410341"/><stop offset="1" stop-color="#64e6f3"/></linearGradient><linearGradient x1="800" y1="282.5" x2="800" y2="282.5" gradientUnits="userSpaceOnUse" id="color-2"><stop offset="0" stop-color="#410341"/><stop offset="1" stop-color="#64e6f3"/></linearGradient><linearGradient x1="640" y1="362.5" x2="640" y2="282.5" gradientUnits="userSpaceOnUse" id="color-3"><stop offset="0" stop-color="#410341"/><stop offset="1" stop-color="#64e6f3"/></linearGradient><linearGradient x1="640" y1="202.5" x2="560" y2="282.5" gradientUnits="userSpaceOnUse" id="color-4"><stop offset="0" stop-color="#410341"/><stop offset="1" stop-color="#64e6f3"/></linearGradient><linearGradient x1="640" y1="282.5" x2="720" y2="442.5" gradientUnits="userSpaceOnUse" id="color-5"><stop offset="0" stop-color="#410341"/><stop offset="1" stop-color="#64e6f3"/></linearGradient><linearGradient x1="880" y1="282.5" x2="720" y2="202.5" gradientUnits="userSpaceOnUse" id="color-6"><stop offset="0" stop-color="#410341"/><stop offset="1" stop-color="#64e6f3"/></linearGradient><linearGradient x1="880" y1="362.5" x2="560" y2="282.5" gradientUnits="userSpaceOnUse" id="color-7"><stop offset="0" stop-color="#410341"/><stop offset="1" stop-color="#64e6f3"/></linearGradient><linearGradient x1="800" y1="202.5" x2="800" y2="202.5" gradientUnits="userSpaceOnUse" id="color-8"><stop offset="0" stop-color="#410341"/><stop offset="1" stop-color="#64e6f3"/></linearGradient><linearGradient x1="880" y1="282.5" x2="560" y2="362.5" gradientUnits="userSpaceOnUse" id="color-9"><stop offset="0" stop-color="#410341"/><stop offset="1" stop-color="#64e6f3"/></linearGradient><linearGradient x1="640" y1="202.5" x2="560" y2="362.5" gradientUnits="userSpaceOnUse" id="color-10"><stop offset="0" stop-color="#410341"/><stop offset="1" stop-color="#64e6f3"/></linearGradient><linearGradient x1="800" y1="202.5" x2="720" y2="362.5" gradientUnits="userSpaceOnUse" id="color-11"><stop offset="0" stop-color="#410341"/><stop offset="1" stop-color="#64e6f3"/></linearGradient><linearGradient x1="640" y1="282.5" x2="720" y2="202.5" gradientUnits="userSpaceOnUse" id="color-12"><stop offset="0" stop-color="#410341"/><stop offset="1" stop-color="#64e6f3"/></linearGradient><linearGradient x1="800" y1="362.5" x2="560" y2="282.5" gradientUnits="userSpaceOnUse" id="color-13"><stop offset="0" stop-color="#410341"/><stop offset="1" stop-color="#64e6f3"/></linearGradient><linearGradient x1="720" y1="442.5" x2="880" y2="362.5" gradientUnits="userSpaceOnUse" id="color-14"><stop offset="0" stop-color="#410341"/><stop offset="1" stop-color="#64e6f3"/></linearGradient><linearGradient x1="720" y1="202.5" x2="880" y2="362.5" gradientUnits="userSpaceOnUse" id="color-15"><stop offset="0" stop-color="#410341"/><stop offset="1" stop-color="#64e6f3"/></linearGradient><linearGradient x1="800" y1="202.5" x2="640" y2="442.5" gradientUnits="userSpaceOnUse" id="color-16"><stop offset="0" stop-color="#410341"/><stop offset="1" stop-color="#64e6f3"/></linearGradient><linearGradient x1="560" y1="282.5" x2="800" y2="362.5" gradientUnits="userSpaceOnUse" id="color-17"><stop offset="0" stop-color="#410341"/><stop offset="1" stop-color="#64e6f3"/></linearGradient><linearGradient x1="640" y1="202.5" x2="640" y2="282.5" gradientUnits="userSpaceOnUse" id="color-18"><stop offset="0" stop-color="#410341"/><stop offset="1" stop-color="#64e6f3"/></linearGradient><linearGradient x1="800" y1="202.5" x2="800" y2="362.5" gradientUnits="userSpaceOnUse" id="color-19"><stop offset="0" stop-color="#410341"/><stop offset="1" stop-color="#64e6f3"/></linearGradient><linearGradient x1="880" y1="282.5" x2="720" y2="442.5" gradientUnits="userSpaceOnUse" id="color-20"><stop offset="0" stop-color="#410341"/><stop offset="1" stop-color="#64e6f3"/></linearGradient><linearGradient x1="880" y1="362.5" x2="560" y2="362.5" gradientUnits="userSpaceOnUse" id="color-21"><stop offset="0" stop-color="#410341"/><stop offset="1" stop-color="#64e6f3"/></linearGradient><linearGradient x1="720" y1="202.5" x2="880" y2="282.5" gradientUnits="userSpaceOnUse" id="color-22"><stop offset="0" stop-color="#410341"/><stop offset="1" stop-color="#64e6f3"/></linearGradient><linearGradient x1="800" y1="202.5" x2="800" y2="282.5" gradientUnits="userSpaceOnUse" id="color-23"><stop offset="0" stop-color="#410341"/><stop offset="1" stop-color="#64e6f3"/></linearGradient></defs><g fill="none" stroke="none" stroke-width="none" stroke-linecap="none" stroke-linejoin="miter" stroke-miterlimit="10" stroke-dasharray="none" stroke-dashoffset="0" font-family="none" font-weight="normal" font-size="none" text-anchor="none" mix-blend-mode="normal"><path d="M640,442.5l160,0" stroke="url(#color-1)" stroke-width="10" stroke-linecap="round" stroke-dasharray=",1000" font-family="sans-serif" font-size="12" text-anchor="start"/><path d="M800,282.5l0,0" stroke="url(#color-2)" stroke-width="10" stroke-linecap="round" stroke-dasharray=",1000" font-family="sans-serif" font-size="12" text-anchor="start"/><path d="M640,362.5l0,-80" stroke="url(#color-3)" stroke-width="10" stroke-linecap="round" stroke-dasharray=",1000" font-family="sans-serif" font-size="12" text-anchor="start"/><path d="M640,202.5c-80,0 -80,0 -80,80" stroke="url(#color-4)" stroke-width="10" stroke-linecap="round" stroke-dasharray=",1000" font-family="sans-serif" font-size="12" text-anchor="start"/><path d="M640,282.5c80,0 80,0 80,160" stroke="url(#color-5)" stroke-width="10" stroke-linecap="round" stroke-dasharray=",1000" font-family="sans-serif" font-size="12" text-anchor="start"/><path d="M880,282.5c-160,0 -160,0 -160,-80" stroke="url(#color-6)" stroke-width="10" stroke-linecap="round" stroke-dasharray=",1000" font-family="sans-serif" font-size="12" text-anchor="start"/><path d="M880,362.5c-320,0 -320,0 -320,-80" stroke="url(#color-7)" stroke-width="10" stroke-linecap="round" stroke-dasharray=",1000" font-family="sans-serif" font-size="12" text-anchor="start"/><path d="M800,202.5l0,0" stroke="url(#color-8)" stroke-width="10" stroke-linecap="round" stroke-dasharray=",1000" font-family="sans-serif" font-size="12" text-anchor="start"/><path d="M880,282.5c0,80 0,80 -320,80" stroke="url(#color-9)" stroke-width="10" stroke-linecap="round" stroke-dasharray=",1000" font-family="sans-serif" font-size="12" text-anchor="start"/><path d="M640,202.5c0,160 0,160 -80,160" stroke="url(#color-10)" stroke-width="10" stroke-linecap="round" stroke-dasharray=",1000" font-family="sans-serif" font-size="12" text-anchor="start"/><path d="M800,202.5c-80,0 -80,0 -80,160" stroke="url(#color-11)" stroke-width="10" stroke-linecap="round" stroke-dasharray=",1000" font-family="sans-serif" font-size="12" text-anchor="start"/><path d="M640,282.5c0,-80 0,-80 80,-80" stroke="url(#color-12)" stroke-width="10" stroke-linecap="round" stroke-dasharray=",1000" font-family="sans-serif" font-size="12" text-anchor="start"/><path d="M800,362.5c0,-80 0,-80 -240,-80" stroke="url(#color-13)" stroke-width="10" stroke-linecap="round" stroke-dasharray=",1000" font-family="sans-serif" font-size="12" text-anchor="start"/><path d="M720,442.5c160,0 160,0 160,-80" stroke="url(#color-14)" stroke-width="10" stroke-linecap="round" stroke-dasharray=",1000" font-family="sans-serif" font-size="12" text-anchor="start"/><path d="M720,202.5c0,160 0,160 160,160" stroke="url(#color-15)" stroke-width="10" stroke-linecap="round" stroke-dasharray=",1000" font-family="sans-serif" font-size="12" text-anchor="start"/><path d="M800,202.5c0,240 0,240 -160,240" stroke="url(#color-16)" stroke-width="10" stroke-linecap="round" stroke-dasharray=",1000" font-family="sans-serif" font-size="12" text-anchor="start"/><path d="M560,282.5c0,80 0,80 240,80" stroke="url(#color-17)" stroke-width="10" stroke-linecap="round" stroke-dasharray=",1000" font-family="sans-serif" font-size="12" text-anchor="start"/><path d="M640,202.5l0,80" stroke="url(#color-18)" stroke-width="10" stroke-linecap="round" stroke-dasharray=",1000" font-family="sans-serif" font-size="12" text-anchor="start"/><path d="M800,202.5l0,160" stroke="url(#color-19)" stroke-width="10" stroke-linecap="round" stroke-dasharray=",1000" font-family="sans-serif" font-size="12" text-anchor="start"/><path d="M880,282.5c0,160 0,160 -160,160" stroke="url(#color-20)" stroke-width="10" stroke-linecap="round" stroke-dasharray=",1000" font-family="sans-serif" font-size="12" text-anchor="start"/><path d="M880,362.5l-320,0" stroke="url(#color-21)" stroke-width="10" stroke-linecap="round" stroke-dasharray=",1000" font-family="sans-serif" font-size="12" text-anchor="start"/><path d="M720,202.5c160,0 160,0 160,80" stroke="url(#color-22)" stroke-width="10" stroke-linecap="round" stroke-dasharray=",1000" font-family="sans-serif" font-size="12" text-anchor="start"/><path d="M800,202.5l0,80" stroke="url(#color-23)" stroke-width="10" stroke-linecap="round" stroke-dasharray=",1000" font-family="sans-serif" font-size="12" text-anchor="start"/><path d="M789.93446,452.43178c-4.98541,-5.01517 -4.80444,-15.19717 0,-20c4.80444,-4.80283 14.89784,-4.89383 20,0c5.10216,4.89383 5.03795,14.9545 0,20c-5.03795,5.0455 -15.01459,5.01517 -20,0z" fill="#64e6f3" stroke-width="1" stroke-linecap="butt" stroke-dasharray="" font-family="sans-serif" font-size="12" text-anchor="start"/><path d="M709.93446,452.43178c-4.98541,-5.01517 -4.80444,-15.19717 0,-20c4.80444,-4.80283 14.89784,-4.89383 20,0c5.10216,4.89383 5.03795,14.9545 0,20c-5.03795,5.0455 -15.01459,5.01517 -20,0z" fill="#64e6f3" stroke-width="1" stroke-linecap="butt" stroke-dasharray="" font-family="sans-serif" font-size="12" text-anchor="start"/><path d="M629.93446,452.43178c-4.98541,-5.01517 -4.80444,-15.19717 0,-20c4.80444,-4.80283 14.89784,-4.89383 20,0c5.10216,4.89383 5.03795,14.9545 0,20c-5.03795,5.0455 -15.01459,5.01517 -20,0z" fill="#64e6f3" stroke-width="1" stroke-linecap="butt" stroke-dasharray="" font-family="sans-serif" font-size="12" text-anchor="start"/><path d="M869.93446,372.43178c-4.98541,-5.01517 -4.80444,-15.19717 0,-20c4.80444,-4.80283 14.89784,-4.89383 20,0c5.10216,4.89383 5.03795,14.9545 0,20c-5.03795,5.0455 -15.01459,5.01517 -20,0z" fill="#64e6f3" stroke-width="1" stroke-linecap="butt" stroke-dasharray="" font-family="sans-serif" font-size="12" text-anchor="start"/><path d="M789.93446,372.43178c-4.98541,-5.01517 -4.80444,-15.19717 0,-20c4.80444,-4.80283 14.89784,-4.89383 20,0c5.10216,4.89383 5.03795,14.9545 0,20c-5.03795,5.0455 -15.01459,5.01517 -20,0z" fill="#64e6f3" stroke-width="1" stroke-linecap="butt" stroke-dasharray="" font-family="sans-serif" font-size="12" text-anchor="start"/><path d="M709.93446,372.43178c-4.98541,-5.01517 -4.80444,-15.19717 0,-20c4.80444,-4.80283 14.89784,-4.89383 20,0c5.10216,4.89383 5.03795,14.9545 0,20c-5.03795,5.0455 -15.01459,5.01517 -20,0z" fill="#64e6f3" stroke-width="1" stroke-linecap="butt" stroke-dasharray="" font-family="sans-serif" font-size="12" text-anchor="start"/><path d="M629.93446,372.43178c-4.98541,-5.01517 -4.80444,-15.19717 0,-20c4.80444,-4.80283 14.89784,-4.89383 20,0c5.10216,4.89383 5.03795,14.9545 0,20c-5.03795,5.0455 -15.01459,5.01517 -20,0z" fill="#64e6f3" stroke-width="1" stroke-linecap="butt" stroke-dasharray="" font-family="sans-serif" font-size="12" text-anchor="start"/><path d="M549.93446,372.43178c-4.98541,-5.01517 -4.80444,-15.19717 0,-20c4.80444,-4.80283 14.89784,-4.89383 20,0c5.10216,4.89383 5.03795,14.9545 0,20c-5.03795,5.0455 -15.01459,5.01517 -20,0z" fill="#64e6f3" stroke-width="1" stroke-linecap="butt" stroke-dasharray="" font-family="sans-serif" font-size="12" text-anchor="start"/><path d="M869.93446,292.43178c-4.98541,-5.01517 -4.80444,-15.19717 0,-20c4.80444,-4.80283 14.89784,-4.89383 20,0c5.10216,4.89383 5.03795,14.9545 0,20c-5.03795,5.0455 -15.01459,5.01517 -20,0z" fill="#64e6f3" stroke-width="1" stroke-linecap="butt" stroke-dasharray="" font-family="sans-serif" font-size="12" text-anchor="start"/><path d="M789.93446,292.43178c-4.98541,-5.01517 -4.80444,-15.19717 0,-20c4.80444,-4.80283 14.89784,-4.89383 20,0c5.10216,4.89383 5.03795,14.9545 0,20c-5.03795,5.0455 -15.01459,5.01517 -20,0z" fill="#64e6f3" stroke-width="1" stroke-linecap="butt" stroke-dasharray="" font-family="sans-serif" font-size="12" text-anchor="start"/><path d="M709.93446,292.43178c-4.98541,-5.01517 -4.80444,-15.19717 0,-20c4.80444,-4.80283 14.89784,-4.89383 20,0c5.10216,4.89383 5.03795,14.9545 0,20c-5.03795,5.0455 -15.01459,5.01517 -20,0z" fill="#64e6f3" stroke-width="1" stroke-linecap="butt" stroke-dasharray="" font-family="sans-serif" font-size="12" text-anchor="start"/><path d="M629.93446,292.43178c-4.98541,-5.01517 -4.80444,-15.19717 0,-20c4.80444,-4.80283 14.89784,-4.89383 20,0c5.10216,4.89383 5.03795,14.9545 0,20c-5.03795,5.0455 -15.01459,5.01517 -20,0z" fill="#64e6f3" stroke-width="1" stroke-linecap="butt" stroke-dasharray="" font-family="sans-serif" font-size="12" text-anchor="start"/><path d="M549.93446,292.43178c-4.98541,-5.01517 -4.80444,-15.19717 0,-20c4.80444,-4.80283 14.89784,-4.89383 20,0c5.10216,4.89383 5.03795,14.9545 0,20c-5.03795,5.0455 -15.01459,5.01517 -20,0z" fill="#64e6f3" stroke-width="1" stroke-linecap="butt" stroke-dasharray="" font-family="sans-serif" font-size="12" text-anchor="start"/><path d="M789.93446,212.43178c-4.98541,-5.01517 -4.80444,-15.19717 0,-20c4.80444,-4.80283 14.89784,-4.89383 20,0c5.10216,4.89383 5.03795,14.9545 0,20c-5.03795,5.0455 -15.01459,5.01517 -20,0z" fill="#64e6f3" stroke-width="1" stroke-linecap="butt" stroke-dasharray="" font-family="sans-serif" font-size="12" text-anchor="start"/><path d="M709.93446,212.43178c-4.98541,-5.01517 -4.80444,-15.19717 0,-20c4.80444,-4.80283 14.89784,-4.89383 20,0c5.10216,4.89383 5.03795,14.9545 0,20c-5.03795,5.0455 -15.01459,5.01517 -20,0z" fill="#64e6f3" stroke-width="1" stroke-linecap="butt" stroke-dasharray="" font-family="sans-serif" font-size="12" text-anchor="start"/><path d="M629.93446,212.43178c-4.98541,-5.01517 -4.80444,-15.19717 0,-20c4.80444,-4.80283 14.89784,-4.89383 20,0c5.10216,4.89383 5.03795,14.9545 0,20c-5.03795,5.0455 -15.01459,5.01517 -20,0z" fill="#64e6f3" stroke-width="1" stroke-linecap="butt" stroke-dasharray="" font-family="sans-serif" font-size="12" text-anchor="start"/><text x="720" y="556.5" fill="#64e6f3" stroke-width="1" stroke-linecap="butt" stroke-dasharray="" font-family="Mentalista Grotesque" font-size="85" text-anchor="middle">mentalista</text></g></svg>