<?xml version="1.0" encoding="utf-8"?>
<!-- Generator: Adobe Illustrator 22.1.0, SVG Export Plug-In . SVG Version: 6.00 Build 0)  -->
<svg version="1.1" id="Calque_1" xmlns="http://www.w3.org/2000/svg" xmlns:xlink="http://www.w3.org/1999/xlink" x="0px" y="0px"
	 viewBox="0 0 1938.3 311" style="enable-background:new 0 0 1938.3 311;" xml:space="preserve">
<g>
	<g>
		<path d="M137.2,156.3c0-24.8-7.4-43.7-32.7-43.7c-32.1,0-44.8,32.1-44.8,56.9v131.2H9.1V77.8h49.5v33.7C69.7,92,86.6,73,119.8,73
			c34.8,0,54.8,17.9,63.2,41.6c11.6-21.1,30-41.6,64.8-41.6c49,0,68,34.8,68,73.8v153.9h-50.6V156.3c0-24.8-7.4-43.7-32.7-43.7
			c-32.1,0-44.8,32.1-44.8,56.9v131.2h-50.6L137.2,156.3L137.2,156.3z"/>
		<path d="M453.4,304.9c-60.6,0-102.8-50.6-102.8-114.9c0-62.7,36.9-117,104.9-117c68.5,0,102.8,54.3,97,130.2H403.9
			c1.6,41.6,17.4,66.9,53.2,66.9c38.5,0,44.8-33.7,48-49.5l46.4,10.5C549.9,242.7,529.9,304.9,453.4,304.9z M404.4,168.4h93.8
			c0-24.2-9.5-60.6-46.9-60.6c-31.1,0-44.8,23.7-46.9,56.4L404.4,168.4z"/>
		<path d="M725.4,156.3c0-24.8-10.5-43.7-36.9-43.7c-33.2,0-49,32.1-49,56.9v131.2h-50.6V77.8h49.5v35.8
			c12.6-20,31.1-40.1,65.4-40.1c50.1,0,72.7,35.3,72.7,73.8v153.9h-50.6V156.3H725.4z"/>
		<path d="M801.3,77.8h36.4V6.6h50.1v71.2h53.2v39h-52.7V229c0,26.9,7.4,32.1,29,32.1h27.4v39h-50.1c-39,0-56.9-17.4-56.9-64.8
			V116.8h-36.4V77.8z"/>
		<path d="M1118.6,268.5c-12.1,19-30.6,36.4-66.9,36.4c-44.8,0-89.1-38.5-89.1-115.4C962.5,112,1006.3,73,1050,73
			c34.8,0,54.3,17.4,66.9,35.3V77.8h50.6v222.9h-49L1118.6,268.5L1118.6,268.5z M1067.4,112.5c-35.8,0-51.6,35.3-51.6,76.9
			c0,40.6,15.8,76.4,51.6,76.4c35.3,0,52.2-36.4,52.2-76.4C1119.6,147.3,1102.7,112.5,1067.4,112.5z"/>
		<path d="M1212.4,6.1h50.6v294.1h-50.6V6.1z"/>
		<path d="M1307.8,6.1h50.6v38.5h-50.6V6.1z M1307.8,77.8h50.6v222.9h-50.6V77.8z"/>
		<path d="M1466.4,116.8c-21.6,0-31.1,7.4-31.1,22.1c0,17.9,15.8,20.6,31.1,24.8l38.5,10.5c34.8,10,53.8,25.8,53.8,62.2
			c0,40.6-27.4,63.2-77.5,63.2h-86.4v-38.5h85.9c19.5,0,32.1-1.6,32.1-20.6c0-16.9-15.8-21.6-39-28.5l-32.7-10
			c-29-9-51.6-22.1-51.6-60.6c0-42.7,30.6-64.3,74.8-64.3h78.5l-3.7,39h-72.7V116.8z"/>
		<path d="M1562.8,77.8h36.4V6.6h50.1v71.2h53.2v39h-52.7V229c0,26.9,7.4,32.1,29,32.1h27.4v39h-50.1c-39,0-56.9-17.4-56.9-64.8
			V116.8h-36.4V77.8z"/>
		<path d="M1880.1,268.5c-12.1,19-30.6,36.4-66.9,36.4c-44.8,0-89.1-38.5-89.1-115.4c0-77.5,43.7-116.5,87.5-116.5
			c34.8,0,54.3,17.4,66.9,35.3V77.8h50.6v222.9h-49L1880.1,268.5L1880.1,268.5z M1829,112.5c-35.8,0-51.6,35.3-51.6,76.9
			c0,40.6,15.8,76.4,51.6,76.4c35.3,0,52.2-36.4,52.2-76.4C1881.2,147.3,1864.3,112.5,1829,112.5z"/>
	</g>
</g>
</svg>
